<?xml version="1.0" standalone="no"?>
<!DOCTYPE svg PUBLIC "-//W3C//DTD SVG 20010904//EN"
 "http://www.w3.org/TR/2001/REC-SVG-20010904/DTD/svg10.dtd">
<svg version="1.0" xmlns="http://www.w3.org/2000/svg"
 width="260.000000pt" height="260.000000pt" viewBox="0 0 260.000000 260.000000"
 preserveAspectRatio="xMidYMid meet">
<metadata>
Created by potrace 1.11, written by Peter Selinger 2001-2013
</metadata>
<g transform="translate(0.000000,260.000000) scale(0.100000,-0.100000)"
fill="#000000" stroke="none">
<path d="M686 2375 c-74 -19 -135 -75 -181 -165 -31 -62 -176 -606 -180 -676
-2 -38 3 -66 17 -94 38 -75 32 -74 491 -76 368 -1 409 0 415 15 9 24 159 586
157 589 -2 2 -432 5 -515 3 l-35 -1 -21 -80 c-12 -44 -18 -81 -13 -81 5 -1 45
-3 89 -4 44 -1 82 -3 84 -4 3 0 -9 -52 -25 -113 -39 -149 -48 -158 -169 -158
-138 0 -136 -18 -39 340 43 162 79 298 79 302 0 4 12 16 27 25 24 16 56 18
290 19 145 1 265 3 267 5 9 10 45 153 40 158 -11 11 -734 7 -778 -4z"/>
<path d="M1777 2375 c-71 -20 -130 -70 -170 -145 -45 -84 -189 -618 -188 -697
0 -68 21 -114 62 -144 l34 -24 355 1 c329 0 358 1 395 19 56 27 110 87 145
160 35 73 168 563 177 651 8 82 -18 142 -73 170 -36 17 -65 19 -364 21 -243 1
-337 -2 -373 -12z m439 -177 c18 -18 24 9 -122 -533 -34 -125 -43 -132 -178
-134 -92 -2 -108 1 -125 18 -22 22 -27 -9 48 276 92 345 100 368 143 384 10 3
63 6 118 6 79 0 103 -4 116 -17z"/>
<path d="M385 1179 c-70 -9 -153 -66 -194 -132 -18 -30 -99 -311 -106 -367 -4
-34 20 -88 50 -116 40 -37 88 -44 313 -44 163 0 212 -3 212 -12 -1 -7 -9 -42
-19 -78 -29 -104 -20 -101 -339 -102 l-271 0 -11 -36 c-6 -20 -13 -58 -17 -84
l-6 -48 384 1 c337 0 389 2 427 17 60 24 127 80 150 127 11 22 50 153 87 290
129 479 126 460 78 524 -46 60 -65 63 -398 65 -165 0 -318 -2 -340 -5z m394
-183 c7 -8 5 -30 -5 -67 -8 -29 -17 -61 -19 -69 -35 -138 -42 -158 -66 -165
-28 -9 -190 -9 -217 -1 -16 5 -21 13 -18 29 10 56 69 263 78 274 6 8 46 13
106 15 108 3 127 1 141 -16z"/>
<path d="M1510 1182 c-62 -8 -152 -69 -193 -131 -13 -20 -42 -107 -66 -199
-53 -200 -52 -230 8 -283 22 -20 55 -39 72 -43 17 -3 127 -6 244 -6 l213 0 -9
-37 c-27 -102 -40 -130 -66 -142 -19 -9 -106 -12 -290 -12 -296 0 -270 7 -292
-84 -7 -27 -14 -58 -17 -68 -5 -16 16 -17 389 -17 l395 1 52 26 c67 33 135
102 148 151 6 20 30 111 55 202 24 91 63 236 87 323 47 174 47 205 3 257 -51
62 -56 62 -397 64 -171 0 -322 0 -336 -2z m396 -186 c3 -7 0 -30 -5 -52 -42
-167 -62 -230 -78 -242 -13 -9 -49 -12 -128 -10 -106 3 -110 4 -113 26 -4 30
57 253 76 274 16 19 76 25 180 20 39 -2 65 -9 68 -16z"/>
</g>
</svg>
