<svg xmlns="http://www.w3.org/2000/svg" xmlns:xlink="http://www.w3.org/1999/xlink" preserveAspectRatio="xMidYMid" width="64" height="64" viewBox="0 0 64 64">
  <defs>
    <style>
      .cls-1 {
        fill: #f6c636;
        fill-rule: evenodd;
      }
    </style>
  </defs>
  <path d="M56.372,47.329 C50.600,53.427 43.423,56.354 35.008,56.158 C30.057,56.041 25.469,54.643 21.265,52.047 C20.551,51.608 20.197,51.627 19.602,52.225 C12.626,59.249 16.714,55.137 9.721,62.142 C8.098,63.766 6.175,64.400 3.978,63.758 C1.900,63.148 0.574,61.680 0.138,59.546 C-0.288,57.470 0.415,55.728 1.908,54.239 C8.971,47.201 4.911,51.238 11.977,44.204 C12.403,43.779 12.430,43.507 12.116,43.000 C8.112,36.508 6.885,29.511 8.491,22.060 C11.269,9.169 22.751,-0.031 35.943,0.007 C39.021,0.017 41.981,0.501 44.687,1.390 C55.876,5.065 63.842,15.542 63.998,27.555 C64.098,35.166 61.594,41.815 56.372,47.329 ZM3.365,55.743 C1.908,57.201 1.682,58.953 2.725,60.434 C3.885,62.085 6.211,62.395 7.755,61.103 C7.940,60.948 8.119,60.785 8.289,60.615 C15.288,53.619 11.186,57.722 18.182,50.724 C18.317,50.589 18.443,50.445 18.571,50.304 C18.472,50.371 18.371,50.439 18.271,50.506 C16.675,48.912 15.081,47.314 13.485,45.717 C13.569,45.619 13.650,45.520 13.734,45.423 C13.592,45.548 13.442,45.668 13.308,45.801 C6.291,52.814 10.376,48.727 3.365,55.743 ZM35.979,2.099 C21.552,2.032 10.058,13.626 9.922,27.870 C9.785,42.205 21.331,53.934 35.762,54.081 C49.788,54.191 61.850,43.019 61.921,28.194 C61.991,13.951 50.707,2.167 35.979,2.099 ZM35.694,52.491 C22.274,52.491 11.352,41.575 11.352,28.156 C11.352,14.737 22.272,3.821 35.694,3.821 C49.116,3.821 60.035,14.737 60.035,28.156 C60.035,41.575 49.116,52.491 35.694,52.491 ZM35.694,5.753 C23.338,5.753 13.286,15.804 13.286,28.156 C13.286,40.509 23.338,50.558 35.694,50.558 C48.050,50.558 58.101,40.509 58.101,28.156 C58.101,15.804 48.050,5.753 35.694,5.753 ZM54.445,34.685 C54.426,34.884 54.255,35.064 54.058,35.064 L52.592,35.064 C52.710,36.271 52.309,37.274 51.394,38.057 C50.775,38.586 50.022,38.856 49.151,38.856 C49.099,38.856 49.046,38.856 48.992,38.853 C48.050,38.818 47.084,38.308 46.473,37.521 C45.936,36.828 45.701,35.969 45.787,35.062 L44.330,35.062 C44.117,35.062 43.944,34.890 43.944,34.677 L43.944,21.662 C43.944,21.448 44.117,21.275 44.330,21.275 L46.276,21.276 C47.273,21.276 48.267,21.276 49.264,21.272 L49.268,21.272 C49.554,21.272 49.772,21.378 49.933,21.598 L54.269,27.361 C54.382,27.510 54.449,27.701 54.449,27.870 C54.456,30.094 54.454,32.319 54.453,34.542 C54.453,34.585 54.450,34.626 54.445,34.685 ZM48.054,36.534 C48.662,37.149 49.734,37.135 50.328,36.541 C50.617,36.252 50.773,35.871 50.773,35.469 C50.772,34.627 50.048,33.917 49.190,33.917 L49.187,33.917 C48.327,33.919 47.623,34.621 47.615,35.483 C47.611,35.871 47.766,36.245 48.054,36.534 ZM52.604,28.237 L48.776,23.129 C48.008,23.122 47.263,23.121 46.518,23.121 L45.785,23.121 L45.785,33.235 C46.071,33.234 46.345,33.237 46.619,33.233 C47.330,32.481 48.241,32.070 49.194,32.068 L49.201,32.068 C50.156,32.068 51.067,32.481 51.768,33.230 C52.005,33.238 52.302,33.235 52.604,33.237 L52.608,32.311 C52.608,30.953 52.609,29.595 52.604,28.237 ZM41.037,35.060 L39.128,35.060 C39.267,36.459 38.730,37.578 37.565,38.318 C36.970,38.696 36.350,38.885 35.731,38.885 C35.084,38.885 34.439,38.680 33.827,38.269 C32.717,37.522 32.208,36.426 32.339,35.076 L28.459,35.076 C28.592,36.453 28.066,37.559 26.919,38.301 C25.708,39.081 24.382,39.078 23.181,38.285 C22.054,37.540 21.537,36.437 21.670,35.074 L19.755,35.074 C19.542,35.074 19.369,34.900 19.369,34.687 L19.369,17.627 C19.369,17.413 19.542,17.240 19.755,17.240 L41.037,17.240 C41.249,17.240 41.422,17.413 41.422,17.627 L41.422,34.674 C41.422,34.887 41.249,35.060 41.037,35.060 ZM38.881,33.606 C38.882,33.606 38.882,33.606 38.882,33.606 L38.881,33.603 L38.881,33.606 ZM35.732,37.011 C36.597,37.011 37.306,36.324 37.320,35.480 C37.325,35.086 37.168,34.705 36.871,34.403 C36.568,34.094 36.160,33.919 35.746,33.917 L35.740,33.917 C35.317,33.917 34.903,34.094 34.596,34.401 C34.301,34.701 34.142,35.081 34.147,35.478 C34.160,36.324 34.869,37.011 35.732,37.011 ZM23.927,36.534 C24.225,36.838 24.622,37.007 25.045,37.010 L25.055,37.010 C25.926,37.010 26.639,36.324 26.646,35.478 C26.649,35.076 26.488,34.692 26.192,34.392 C25.888,34.086 25.490,33.917 25.070,33.916 L25.066,33.916 C24.208,33.916 23.499,34.602 23.485,35.446 C23.479,35.851 23.635,36.238 23.927,36.534 ZM39.590,19.101 L21.206,19.101 L21.239,33.219 C21.666,33.221 22.083,33.221 22.500,33.215 C23.185,32.483 24.076,32.080 25.025,32.071 C25.966,32.055 26.899,32.455 27.594,33.181 C27.609,33.193 27.662,33.214 27.687,33.214 C28.670,33.219 29.658,33.219 30.645,33.221 L33.070,33.225 C33.160,33.225 33.187,33.208 33.240,33.152 C33.913,32.434 34.831,32.065 35.743,32.065 C36.535,32.065 37.324,32.342 37.946,32.905 C38.243,33.173 38.491,33.256 38.820,33.223 C38.877,33.216 38.937,33.216 38.992,33.219 L39.590,33.219 L39.590,19.101 ZM32.328,25.463 C31.879,25.463 31.514,25.099 31.514,24.652 C31.514,24.293 30.877,23.876 30.058,23.876 C29.239,23.876 28.603,24.293 28.603,24.652 C28.603,25.010 29.239,25.426 30.058,25.426 C31.785,25.426 33.138,26.480 33.138,27.825 C33.138,28.933 32.202,29.869 30.871,30.142 L30.871,30.317 C30.873,30.765 30.509,31.129 30.060,31.129 C29.613,31.129 29.248,30.765 29.248,30.317 L29.248,30.142 C27.916,29.869 26.982,28.933 26.982,27.825 C26.982,27.378 27.346,27.013 27.795,27.013 C28.242,27.013 28.605,27.378 28.605,27.825 C28.605,28.183 29.240,28.599 30.060,28.599 C30.878,28.599 31.515,28.183 31.515,27.825 C31.515,27.466 30.878,27.050 30.060,27.050 C28.333,27.050 26.982,25.996 26.982,24.652 C26.982,23.542 27.916,22.608 29.248,22.335 L29.248,22.159 C29.248,21.712 29.613,21.348 30.060,21.348 C30.509,21.348 30.873,21.712 30.873,22.159 L30.873,22.335 C32.205,22.608 33.139,23.542 33.139,24.652 C33.139,25.099 32.775,25.463 32.328,25.463 Z" class="cls-1"/>
</svg>
