<svg xmlns="http://www.w3.org/2000/svg" viewBox="0 0 45.61 33.5"><defs><style>.cls-1{fill:#08232f;}</style></defs><title>icon-rightchevrons</title><g id="Layer_2" data-name="Layer 2"><g id="Layer_1-2" data-name="Layer 1"><path class="cls-1" d="M28.86,33.5H16.75a16.75,16.75,0,0,1,0-33.5H28.86a16.75,16.75,0,1,1,0,33.5ZM16.75,1.5a15.25,15.25,0,0,0,0,30.5H28.86a15.25,15.25,0,1,0,0-30.5Z"/><path class="cls-1" d="M18.56,23.7a.75.75,0,0,1-.53-.22l-6.2-6.2a.75.75,0,0,1,0-1.06L18,10a.75.75,0,0,1,1.06,1.06l-5.67,5.67,5.67,5.67a.75.75,0,0,1-.53,1.28Z"/><path class="cls-1" d="M29.51,23.7a.75.75,0,0,1-.53-.22l-6.2-6.2a.75.75,0,0,1,0-1.06L29,10A.75.75,0,0,1,30,11.08l-5.67,5.67L30,22.42a.75.75,0,0,1-.53,1.28Z"/></g></g></svg>