<svg xmlns="http://www.w3.org/2000/svg" viewBox="0 0 45.61 33.5"><defs><style>.cls-1{fill:#08232f;}</style></defs><title>icon-leftchevrons</title><g id="Layer_2" data-name="Layer 2"><g id="Layer_1-2" data-name="Layer 1"><path class="cls-1" d="M28.86,33.5H16.75a16.75,16.75,0,0,1,0-33.5H28.86a16.75,16.75,0,1,1,0,33.5ZM16.75,1.5a15.25,15.25,0,0,0,0,30.5H28.86a15.25,15.25,0,1,0,0-30.5Z"/><path class="cls-1" d="M27,23.7a.75.75,0,0,1-.53-1.28l5.67-5.67-5.67-5.67A.75.75,0,1,1,27.58,10l6.2,6.2a.75.75,0,0,1,0,1.06l-6.2,6.2A.75.75,0,0,1,27,23.7Z"/><path class="cls-1" d="M16.1,23.7a.75.75,0,0,1-.53-1.28l5.67-5.67-5.67-5.67A.75.75,0,0,1,16.63,10l6.2,6.2a.75.75,0,0,1,0,1.06l-6.2,6.2A.75.75,0,0,1,16.1,23.7Z"/></g></g></svg>