<svg xmlns="http://www.w3.org/2000/svg" xmlns:xlink="http://www.w3.org/1999/xlink" preserveAspectRatio="xMidYMid" width="58.468" height="64" viewBox="0 0 58.468 64">
  <defs>
    <style>
      .cls-1 {
        fill: #f6c636;
        fill-rule: evenodd;
      }
    </style>
  </defs>
  <path d="M57.324,36.922 L56.301,37.161 L56.301,40.920 C56.301,41.733 55.640,42.387 54.819,42.387 L36.624,42.387 L36.624,59.303 C36.624,61.891 34.498,64.001 31.879,64.001 L4.744,64.001 C2.129,64.001 -0.001,61.891 -0.001,59.302 L-0.001,4.695 C-0.001,2.109 2.129,-0.001 4.744,-0.001 L31.879,-0.001 C34.498,-0.001 36.624,2.109 36.624,4.695 L36.624,13.750 L51.129,10.426 C51.937,10.239 52.718,10.733 52.906,11.533 L53.768,15.200 L54.819,15.200 C55.640,15.200 56.300,15.853 56.301,16.666 L56.301,26.053 L58.429,35.160 C58.616,35.947 58.118,36.733 57.324,36.922 ZM2.156,59.303 C2.156,60.715 3.318,61.866 4.744,61.866 L31.879,61.866 C33.312,61.866 34.474,60.715 34.474,59.303 L34.473,59.303 L34.473,51.199 L2.156,51.199 L2.156,59.303 ZM34.474,4.695 C34.474,3.285 33.311,2.134 31.879,2.134 L4.744,2.134 C3.318,2.134 2.156,3.285 2.156,4.695 L2.157,4.695 L2.157,6.400 L34.474,6.400 L34.474,4.695 ZM34.474,8.529 L2.157,8.529 L2.157,49.068 L34.474,49.068 L34.474,42.387 L33.471,42.387 L12.592,47.172 C11.784,47.346 11.003,46.867 10.814,46.065 L9.953,42.387 L8.902,42.387 C8.081,42.387 7.421,41.732 7.421,40.920 L7.421,31.547 L5.293,22.440 C5.105,21.653 5.603,20.866 6.398,20.680 L7.421,20.440 L7.421,16.666 C7.421,15.853 8.081,15.200 8.902,15.200 L30.298,15.200 L34.474,14.243 L34.474,8.529 ZM27.040,42.387 L19.895,42.387 L19.890,42.388 L18.611,42.681 C18.314,42.748 18.005,42.628 17.857,42.388 C17.856,42.388 17.856,42.387 17.856,42.387 L11.420,42.387 L12.201,45.745 C12.215,45.774 12.242,45.787 12.268,45.774 L27.040,42.387 ZM7.421,25.293 L7.421,21.906 L6.721,22.066 C6.694,22.066 6.667,22.093 6.680,22.120 L7.421,25.293 ZM51.518,11.840 C51.505,11.826 51.479,11.800 51.451,11.800 L36.639,15.200 L36.640,15.200 L43.885,15.200 L45.110,14.920 C45.406,14.853 45.704,14.973 45.851,15.200 L52.299,15.200 L51.518,11.840 ZM54.872,37.482 L54.872,36.013 L54.872,26.200 L54.872,19.946 L54.872,16.666 C54.872,16.640 54.847,16.613 54.819,16.613 L54.090,16.613 L52.637,16.613 L52.636,16.613 L46.470,16.613 L44.856,16.613 L44.854,16.613 L44.087,16.613 L37.718,16.613 L30.488,16.613 L30.487,16.613 L24.145,16.613 L8.902,16.613 C8.875,16.613 8.848,16.640 8.848,16.666 L8.848,20.120 L8.848,21.573 L8.848,31.400 L8.848,37.653 L8.848,40.920 C8.848,40.945 8.875,40.959 8.902,40.959 L9.616,40.959 L11.083,40.959 L33.261,40.959 L39.697,40.959 L54.819,40.959 C54.845,40.959 54.872,40.947 54.872,40.920 L54.872,37.482 ZM56.301,32.308 L56.301,35.680 L57.001,35.520 C57.028,35.520 57.055,35.508 57.042,35.482 L56.301,32.308 ZM52.524,34.813 C50.387,34.813 48.650,36.533 48.650,38.651 C48.650,39.043 48.330,39.360 47.932,39.360 L37.575,39.360 L37.572,39.360 L37.571,39.360 L26.150,39.360 L26.148,39.360 L26.146,39.360 L15.787,39.360 C15.391,39.360 15.069,39.043 15.069,38.651 C15.069,36.533 13.332,34.813 11.197,34.813 C10.799,34.813 10.478,34.496 10.478,34.104 L10.478,23.493 C10.478,23.101 10.799,22.782 11.197,22.782 C13.332,22.782 15.069,21.061 15.069,18.946 C15.069,18.553 15.391,18.236 15.787,18.236 L47.934,18.236 C48.331,18.236 48.651,18.553 48.651,18.946 C48.651,21.061 50.388,22.782 52.525,22.782 C52.921,22.782 53.243,23.101 53.242,23.493 L53.242,34.104 C53.242,34.496 52.920,34.813 52.524,34.813 ZM16.456,19.656 C16.138,21.988 14.268,23.840 11.913,24.156 L11.913,33.441 C14.268,33.755 16.138,35.608 16.456,37.940 L23.905,37.940 C21.246,35.668 19.662,32.332 19.662,28.799 C19.662,25.265 21.246,21.929 23.905,19.656 L16.456,19.656 ZM37.373,19.656 L26.348,19.656 C23.105,21.578 21.096,25.063 21.096,28.799 C21.096,32.532 23.105,36.019 26.348,37.940 L37.373,37.940 C40.617,36.019 42.623,32.533 42.623,28.799 C42.623,25.063 40.617,21.578 37.373,19.656 ZM51.809,24.156 C49.454,23.840 47.584,21.988 47.266,19.656 L39.816,19.656 C42.474,21.929 44.058,25.265 44.058,28.799 C44.058,32.332 42.475,35.668 39.816,37.940 L47.266,37.940 C47.584,35.608 49.454,33.755 51.809,33.441 L51.809,24.156 ZM45.686,28.797 C45.686,27.571 46.694,26.573 47.935,26.573 C48.331,26.573 48.651,26.891 48.651,27.283 C48.651,27.675 48.331,27.993 47.935,27.993 C47.487,27.993 47.120,28.355 47.120,28.797 C47.120,29.243 47.487,29.604 47.935,29.604 C48.384,29.604 48.747,29.243 48.748,28.797 C48.748,28.407 49.070,28.088 49.466,28.088 C49.863,28.088 50.184,28.407 50.184,28.797 C50.184,30.025 49.174,31.025 47.935,31.025 C46.694,31.025 45.686,30.025 45.686,28.797 ZM31.859,28.088 C34.408,28.088 36.405,29.564 36.405,31.451 C36.405,33.155 34.774,34.525 32.575,34.772 L32.575,35.620 C32.575,36.013 32.256,36.328 31.859,36.328 C31.463,36.328 31.141,36.013 31.141,35.620 L31.141,34.772 C28.946,34.525 27.314,33.155 27.314,31.451 C27.314,31.057 27.636,30.740 28.032,30.740 C28.429,30.740 28.750,31.057 28.750,31.451 C28.750,32.504 30.174,33.393 31.860,33.393 C33.546,33.393 34.971,32.504 34.971,31.451 C34.971,30.396 33.546,29.508 31.860,29.508 C29.311,29.508 27.316,28.031 27.314,26.145 C27.314,24.440 28.946,23.069 31.141,22.821 L31.141,21.977 C31.141,21.585 31.463,21.265 31.859,21.265 C32.256,21.265 32.575,21.585 32.575,21.977 L32.575,22.821 C34.774,23.069 36.405,24.440 36.405,26.145 C36.405,26.537 36.083,26.855 35.687,26.855 C35.290,26.855 34.969,26.537 34.969,26.145 C34.969,25.092 33.545,24.201 31.859,24.201 C30.173,24.201 28.749,25.092 28.749,26.145 C28.749,27.199 30.173,28.088 31.859,28.088 ZM15.787,31.025 C14.547,31.025 13.539,30.025 13.539,28.797 C13.539,27.569 14.547,26.572 15.787,26.572 C16.184,26.572 16.505,26.891 16.505,27.281 C16.505,27.673 16.184,27.993 15.787,27.993 C15.338,27.993 14.975,28.353 14.975,28.797 C14.975,29.243 15.338,29.604 15.787,29.604 C16.235,29.604 16.601,29.243 16.601,28.797 C16.601,28.405 16.922,28.088 17.319,28.088 C17.715,28.088 18.037,28.405 18.037,28.797 C18.037,30.025 17.027,31.025 15.787,31.025 ZM14.007,3.197 L18.314,3.197 C18.909,3.197 19.393,3.677 19.393,4.265 C19.393,4.854 18.909,5.333 18.314,5.333 L14.007,5.333 C13.406,5.333 12.928,4.854 12.928,4.265 C12.928,3.677 13.406,3.197 14.007,3.197 ZM21.543,3.197 L22.622,3.197 C23.216,3.197 23.700,3.677 23.700,4.265 C23.700,4.854 23.216,5.333 22.622,5.333 L21.543,5.333 C20.951,5.333 20.466,4.854 20.465,4.265 C20.465,3.677 20.949,3.197 21.543,3.197 ZM18.314,60.802 C15.936,60.802 14.007,58.886 14.007,56.531 C14.007,54.183 15.936,52.266 18.314,52.266 C20.692,52.266 22.622,54.183 22.622,56.531 C22.622,58.885 20.692,60.802 18.314,60.802 ZM18.314,54.401 C17.125,54.401 16.157,55.359 16.157,56.531 C16.157,57.708 17.125,58.667 18.314,58.667 C19.503,58.667 20.466,57.708 20.466,56.531 C20.466,55.360 19.503,54.401 18.314,54.401 Z" class="cls-1"/>
</svg>
