<svg xmlns="http://www.w3.org/2000/svg" height="32px" viewBox="0 0 32 32"><title>icon-checkmark</title><g id="Layer_2" data-name="Layer 2"><g id="Layer_1-2" data-name="Layer 1"><path d="M24,10.29l-10.29,10-3.61-3.61a1,1,0,0,0-.71-.3.75.75,0,0,0-.64.3.75.75,0,0,0-.3.64,1,1,0,0,0,.3.71l4.28,4.28a.35.35,0,0,0,.26.19,2.11,2.11,0,0,0,.41,0,1.74,1.74,0,0,0,.34,0,.35.35,0,0,0,.26-.19l11-10.67a.75.75,0,0,0,.3-.64,1.16,1.16,0,0,0-.23-.71,1,1,0,0,0-.71-.3A.75.75,0,0,0,24,10.29ZM16,30.72a14.2,14.2,0,0,1-5.75-1.16,15.84,15.84,0,0,1-4.69-3.12,15.84,15.84,0,0,1-3.12-4.69A14.2,14.2,0,0,1,1.28,16a14.2,14.2,0,0,1,1.16-5.75A15.84,15.84,0,0,1,5.56,5.56a15.84,15.84,0,0,1,4.69-3.12A14.2,14.2,0,0,1,16,1.28a14.2,14.2,0,0,1,5.75,1.16,15.84,15.84,0,0,1,4.69,3.12,15.84,15.84,0,0,1,3.12,4.69A14.2,14.2,0,0,1,30.72,16a14.2,14.2,0,0,1-1.16,5.75,15.84,15.84,0,0,1-3.12,4.69,15.84,15.84,0,0,1-4.69,3.12A14.2,14.2,0,0,1,16,30.72ZM16,0A15.93,15.93,0,0,0,0,16,15.93,15.93,0,0,0,16,32,15.93,15.93,0,0,0,32,16,15.93,15.93,0,0,0,16,0Z"/></g></g></svg>
