<svg xmlns="http://www.w3.org/2000/svg" height="26px" viewBox="0 0 33.62 32"><title>icon-downarrow</title><g id="Layer_2" data-name="Layer 2"><g id="Layer_1-2" data-name="Layer 1"><g class="cls-1"><path class="cls-arrow" d="M32.82,17.13l-14,14.07a2.87,2.87,0,0,1-2,.8,2.77,2.77,0,0,1-1.94-.8L.82,17.13A2.71,2.71,0,0,1,0,15.19a2.8,2.8,0,0,1,.82-2l1.6-1.62a2.87,2.87,0,0,1,2-.8,2.77,2.77,0,0,1,1.94.8L12.67,18V2.76A2.78,2.78,0,0,1,15.43,0h2.76A2.78,2.78,0,0,1,21,2.76V18l6.34-6.34a2.77,2.77,0,0,1,1.94-.8,2.87,2.87,0,0,1,2,.8l1.62,1.62a2.87,2.87,0,0,1,.8,2A2.78,2.78,0,0,1,32.82,17.13Z"/></g></g></g></svg>
