<svg xmlns="http://www.w3.org/2000/svg" xmlns:xlink="http://www.w3.org/1999/xlink" preserveAspectRatio="xMidYMid" width="51.56" height="64" viewBox="0 0 51.56 64">
  <defs>
    <style>
      .cls-1 {
        fill: #f6c636;
        fill-rule: evenodd;
      }
    </style>
  </defs>
  <path d="M45.696,64.000 L5.859,64.000 C2.629,64.000 0.001,61.375 0.001,58.149 L0.001,5.850 C0.001,2.625 2.629,-0.000 5.859,-0.000 L45.696,-0.000 C48.926,-0.000 51.554,2.625 51.554,5.850 L51.554,58.149 C51.554,61.375 48.926,64.000 45.696,64.000 ZM49.010,5.850 C49.010,4.026 47.524,2.542 45.696,2.542 L5.859,2.542 C4.031,2.542 2.545,4.026 2.545,5.850 L2.545,58.149 C2.545,59.974 4.031,61.459 5.859,61.459 L45.696,61.459 C47.524,61.459 49.010,59.974 49.010,58.149 L49.010,5.850 ZM23.005,53.549 C22.877,53.549 22.742,53.555 22.622,53.575 L22.622,52.586 C22.705,52.575 22.796,52.575 22.885,52.575 C29.367,52.569 35.842,52.569 42.314,52.573 L42.314,53.544 L37.289,53.544 C32.524,53.544 27.761,53.544 23.005,53.549 ZM23.005,36.009 C22.877,36.009 22.742,36.014 22.622,36.034 L22.622,35.046 C22.705,35.034 22.796,35.034 22.885,35.034 C29.367,35.029 35.842,35.029 42.314,35.033 L42.314,36.004 L37.289,36.004 C32.524,36.004 27.761,36.004 23.005,36.009 ZM23.005,18.217 C22.877,18.217 22.742,18.222 22.622,18.242 L22.622,17.253 C22.705,17.242 22.796,17.242 22.885,17.242 C29.367,17.237 35.842,17.237 42.314,17.242 L42.314,18.211 L37.289,18.211 C32.524,18.211 27.761,18.211 23.005,18.217 ZM16.177,34.844 C15.417,35.609 14.424,36.033 13.380,36.036 L13.369,36.036 C11.099,36.036 9.249,34.244 9.242,32.035 C9.235,29.739 11.014,27.934 13.293,27.926 L13.309,27.926 C15.537,27.926 17.358,29.733 17.370,31.960 C17.376,33.039 16.952,34.063 16.177,34.844 ZM13.413,29.923 C13.384,29.922 13.354,29.921 13.325,29.921 C12.236,29.921 11.295,30.773 11.248,31.823 C11.196,33.008 12.054,33.978 13.204,34.032 C13.758,34.052 14.283,33.870 14.684,33.505 C15.098,33.126 15.340,32.592 15.365,32.004 C15.408,30.942 14.497,29.969 13.413,29.923 ZM17.340,16.361 C17.341,16.465 17.300,16.564 17.225,16.636 L15.776,18.043 C15.703,18.115 15.608,18.150 15.504,18.150 C15.403,18.149 15.306,18.106 15.237,18.034 L13.538,16.245 L11.701,18.129 C11.629,18.202 11.531,18.242 11.430,18.242 L11.426,18.242 C11.321,18.241 11.223,18.198 11.153,18.122 L9.710,16.583 C9.641,16.510 9.605,16.413 9.609,16.313 C9.611,16.212 9.653,16.118 9.728,16.049 L11.528,14.372 L9.673,12.571 C9.601,12.500 9.558,12.401 9.558,12.300 C9.558,12.197 9.599,12.100 9.673,12.029 L11.115,10.630 C11.265,10.484 11.504,10.487 11.650,10.638 L13.472,12.505 L15.276,10.588 C15.347,10.512 15.456,10.459 15.552,10.468 C15.654,10.468 15.751,10.510 15.822,10.583 L17.190,11.981 C17.260,12.053 17.300,12.150 17.297,12.251 C17.296,12.351 17.256,12.447 17.182,12.516 L15.328,14.310 L17.221,16.089 C17.296,16.159 17.338,16.258 17.340,16.361 ZM11.185,46.010 C11.339,45.873 11.575,45.880 11.718,46.030 L13.381,47.795 L15.194,45.844 C15.266,45.765 15.360,45.709 15.472,45.724 C15.572,45.724 15.670,45.761 15.740,45.835 L17.227,47.320 C17.300,47.393 17.338,47.489 17.338,47.590 C17.337,47.691 17.296,47.789 17.222,47.859 L15.310,49.698 L17.202,51.492 C17.277,51.564 17.320,51.662 17.320,51.764 C17.320,51.868 17.278,51.965 17.204,52.037 L15.754,53.431 C15.603,53.573 15.366,53.570 15.221,53.424 L13.480,51.664 L11.725,53.463 C11.654,53.536 11.556,53.576 11.454,53.576 C11.352,53.576 11.253,53.536 11.183,53.463 L9.806,52.051 C9.661,51.901 9.662,51.663 9.812,51.517 L11.538,49.823 L9.639,47.970 C9.566,47.897 9.525,47.797 9.526,47.694 C9.527,47.590 9.573,47.492 9.649,47.421 L11.185,46.010 Z" class="cls-1"/>
</svg>
