<svg xmlns="http://www.w3.org/2000/svg" height="32px" viewBox="0 0 191.95 41.24"><defs><style>.cls-3{fill:#08232f;}.cls-4{fill:#f6c636;}</style></defs><title>logo</title><g id="Layer_2" data-name="Layer 2"><g id="Layer_1-2" data-name="Layer 1"><path class="cls-3" d="M46.18.06,44.4,6.72H23.78a2.09,2.09,0,0,0-.43.06l-.43.12-.49.23a3,3,0,0,0-.43.23,3,3,0,0,0-.46.29,1.45,1.45,0,0,0-.34.34l-.26.37a1.42,1.42,0,0,0-.2.37L14.47,32.22a2.08,2.08,0,0,0-.09.4.89.89,0,0,0,0,.4c0,.11.09.24.14.37a1.18,1.18,0,0,0,.26.37l.29.29a1.21,1.21,0,0,0,.29.23l.37.14a1,1,0,0,0,.37.09h6l.4,0a1.4,1.4,0,0,0,.46-.14,1.49,1.49,0,0,0,.4-.23l.4-.29a1.26,1.26,0,0,0,.4-.32,3.91,3.91,0,0,0,.29-.37,1.75,1.75,0,0,0,.29-.37,2.11,2.11,0,0,0,.17-.37l2.41-9.07H19.7l1.78-6.61H43.59L37,41.18H6.32a9.9,9.9,0,0,1-1.09-.06A5.45,5.45,0,0,1,4.31,41a2.6,2.6,0,0,1-.86-.26l-.75-.37A7.76,7.76,0,0,1,2,39.8q-.34-.29-.63-.57t-.43-.72c-.13-.25-.26-.49-.37-.72L.34,37.1a4.56,4.56,0,0,1-.17-.69q-.06-.34-.11-.75A5.38,5.38,0,0,1,0,34.92q.06-.46.09-1t.09-1q.06-.46.14-.95t.2-.95L6,10.57a8.18,8.18,0,0,1,.32-1.06q.2-.54.37-1.06t.49-1q.26-.52.49-.92a5.08,5.08,0,0,1,.49-.86l.6-.86q.29-.4.63-.8c.23-.27.44-.5.63-.69a6.84,6.84,0,0,1,.75-.75l.75-.63a8,8,0,0,0,.89-.52q.43-.29.83-.52a9,9,0,0,1,.86-.32l.86-.26q.46-.06.89-.14a4.53,4.53,0,0,1,.89-.09Z"/><path class="cls-3" d="M61.91,0H84.37a10.61,10.61,0,0,1,2,.17q.52.12.95.26A5.94,5.94,0,0,1,88,.75a4.45,4.45,0,0,1,.78.43l.72.49a4.77,4.77,0,0,1,.57.72,5.3,5.3,0,0,1,.46.83q.17.4.32.86a5.29,5.29,0,0,1,.2,1,6.83,6.83,0,0,1,.14,1.15,9.46,9.46,0,0,1,0,1.26q-.06.4-.11.92a10,10,0,0,1-.17,1q-.12.52-.23,1.12a11.72,11.72,0,0,1-.29,1.18L85.69,29.41q-.17.63-.37,1.26t-.43,1.21A8,8,0,0,1,84.46,33q-.26.55-.49,1.06a6.11,6.11,0,0,1-.57,1.18l-.69,1.06-.8,1-.75.89a10,10,0,0,1-1.38,1.15,11.87,11.87,0,0,1-1.44.86c-.31.15-.63.3-1,.43a4,4,0,0,1-1,.26L75.27,41a7.13,7.13,0,0,1-1.12.09H50c-.31,0-.61,0-.92,0a3.14,3.14,0,0,1-.8-.14,2.76,2.76,0,0,1-.78-.23,7,7,0,0,1-.66-.34,6.65,6.65,0,0,1-.78-.52,2.65,2.65,0,0,1-.6-.63,6,6,0,0,1-.52-.72,2.91,2.91,0,0,1-.34-.83c-.08-.23-.15-.48-.23-.75a6.19,6.19,0,0,1-.17-.8q-.06-.4-.11-.86a3.74,3.74,0,0,1,0-.92v-.83a3.68,3.68,0,0,1,.11-.89c0-.27.09-.55.14-.83s.11-.56.14-.83l5.4-20.33q.17-.57.37-1.21l.37-1.15c.15-.34.32-.69.49-1l.49-1a5,5,0,0,1,.57-1c.23-.31.44-.61.63-.92a4.66,4.66,0,0,1,.66-.83q.37-.37.72-.66A5.93,5.93,0,0,1,55,2.24l.8-.57.83-.46c.29-.15.56-.29.83-.4s.71-.22,1.09-.32L59.68.23,60.79.09A8,8,0,0,1,61.91,0Zm5.92,6.84a2.55,2.55,0,0,0-.55.06L66.8,7l-.49.26-.43.26a3.11,3.11,0,0,0-.46.43c-.15.17-.29.34-.4.49s-.16.38-.26.57l-.26.52-6.09,22.8a.79.79,0,0,0,0,.37,2.75,2.75,0,0,1,0,.37,2,2,0,0,0,.17.37l.17.32.34.26a1.53,1.53,0,0,0,.29.2,1.28,1.28,0,0,0,.37.17,1.35,1.35,0,0,0,.37.06h7.7a1.67,1.67,0,0,0,.4-.06,1.25,1.25,0,0,0,.4-.17,1.29,1.29,0,0,0,.46-.23,3.93,3.93,0,0,0,.4-.34,1.72,1.72,0,0,0,.34-.32,4,4,0,0,0,.29-.37,3.8,3.8,0,0,0,.23-.4,3.24,3.24,0,0,0,.17-.4L76.73,9a1.29,1.29,0,0,0,.06-.4v-.4c0-.12-.09-.24-.14-.37a1,1,0,0,0-.2-.32l-.26-.26a.82.82,0,0,0-.32-.2,2.53,2.53,0,0,1-.34-.14.77.77,0,0,0-.34-.09Z"/><path class="cls-4" d="M130.55.06a5.39,5.39,0,0,1,.75.06l.75.11a5.46,5.46,0,0,1,.78.29l.72.34a4.65,4.65,0,0,1,.49.29l.49.34a2.71,2.71,0,0,1,.52.4,4.55,4.55,0,0,1,.4.46q.23.29.43.57l.37.52a5,5,0,0,1,.32.63l.26.63a2.22,2.22,0,0,1,.14.63q0,.34,0,.69t0,.69q0,.34-.09.69l-7.12,26.54a5.29,5.29,0,0,1-.57,1.38,4.45,4.45,0,0,1-.46.72q-.29.37-.52.72a4.06,4.06,0,0,1-.49.52l-.49.46a2.8,2.8,0,0,1-.55.52,4.6,4.6,0,0,0-.55.46,5.11,5.11,0,0,1-.75.52q-.4.23-.75.46a6.92,6.92,0,0,1-.75.43l-.8.37c-.27.11-.55.22-.83.32a4.7,4.7,0,0,1-.83.2,5.65,5.65,0,0,1-.83.17,5.84,5.84,0,0,1-.78.06H90l1.72-6.72h21.19l.4,0a.91.91,0,0,0,.4-.14,1.92,1.92,0,0,0,.4-.2l.46-.26a2.12,2.12,0,0,0,.43-.29,1.77,1.77,0,0,0,.32-.34l.26-.37a1.48,1.48,0,0,0,.2-.37l1.55-5.86h-17a4.53,4.53,0,0,1-.89-.09l-.89-.2a5.47,5.47,0,0,1-.83-.32,5.77,5.77,0,0,1-.78-.43,4.37,4.37,0,0,1-.49-.29,7.44,7.44,0,0,1-.86-.75l-.37-.4c-.11-.15-.23-.32-.34-.49l-.34-.55q-.12-.23-.26-.55a2.72,2.72,0,0,1-.2-.6q-.06-.23-.11-.55a3.33,3.33,0,0,1-.06-.6v-.63a1.67,1.67,0,0,1,.12-.63L97.24,7.52l.23-.69a3.19,3.19,0,0,1,.29-.63,4.57,4.57,0,0,1,.43-.69,7.44,7.44,0,0,0,.43-.63l.57-.6q.29-.31.52-.6t.66-.6l.72-.6q.29-.23.66-.49t.66-.49a7.13,7.13,0,0,1,.75-.43,5.91,5.91,0,0,1,.75-.32,4.69,4.69,0,0,1,.72-.29l.72-.23.72-.11a4.48,4.48,0,0,1,.66-.06ZM120.9,6.84h-7.75l-.2,0a1.06,1.06,0,0,0-.26.09l-.34.23a2,2,0,0,0-.29.23l-.23.26-.23.26a1.1,1.1,0,0,0-.2.29.7.7,0,0,0-.09.23l-2.7,10v.29a.63.63,0,0,0,.06.29.68.68,0,0,0,.09.29.48.48,0,0,0,.2.23.49.49,0,0,0,.2.2l.26.14a.89.89,0,0,0,.32.14,1.57,1.57,0,0,0,.32,0h7.24l.29,0a1,1,0,0,0,.29-.09,1.26,1.26,0,0,0,.4-.17l.34-.23a.71.71,0,0,0,.32-.23,1.47,1.47,0,0,1,.32-.29,1.1,1.1,0,0,0,.2-.29.68.68,0,0,0,.09-.29l2.7-10.05a.75.75,0,0,0,0-.57l-.14-.26a1.39,1.39,0,0,0-.2-.26l-.17-.14L121.48,7l-.29-.11A1,1,0,0,0,120.9,6.84Z"/><path class="cls-4" d="M175.81.06a5.39,5.39,0,0,1,.75.06l.75.11a5.46,5.46,0,0,1,.78.29l.72.34a4.65,4.65,0,0,1,.49.29l.49.34a2.71,2.71,0,0,1,.52.4,4.55,4.55,0,0,1,.4.46q.23.29.43.57l.37.52a5,5,0,0,1,.32.63l.26.63a2.22,2.22,0,0,1,.14.63q0,.34,0,.69t0,.69q0,.34-.09.69L175,33.94a5.29,5.29,0,0,1-.57,1.38A4.45,4.45,0,0,1,174,36q-.29.37-.52.72a4.06,4.06,0,0,1-.49.52l-.49.46a2.8,2.8,0,0,1-.55.52,4.6,4.6,0,0,0-.55.46,5.11,5.11,0,0,1-.75.52q-.4.23-.75.46a6.92,6.92,0,0,1-.75.43l-.8.37c-.27.11-.55.22-.83.32a4.7,4.7,0,0,1-.83.2,5.65,5.65,0,0,1-.83.17,5.84,5.84,0,0,1-.78.06H135.26L137,34.52h21.19l.4,0a.91.91,0,0,0,.4-.14,1.92,1.92,0,0,0,.4-.2l.46-.26a2.12,2.12,0,0,0,.43-.29,1.77,1.77,0,0,0,.32-.34l.26-.37a1.48,1.48,0,0,0,.2-.37l1.55-5.86h-17a4.53,4.53,0,0,1-.89-.09l-.89-.2A5.47,5.47,0,0,1,143,26a5.77,5.77,0,0,1-.78-.43,4.37,4.37,0,0,1-.49-.29,7.44,7.44,0,0,1-.86-.75l-.37-.4c-.11-.15-.23-.32-.34-.49l-.34-.55q-.12-.23-.26-.55a2.72,2.72,0,0,1-.2-.6q-.06-.23-.11-.55a3.33,3.33,0,0,1-.06-.6v-.63a1.67,1.67,0,0,1,.12-.63L142.5,7.52l.23-.69A3.19,3.19,0,0,1,143,6.2a4.57,4.57,0,0,1,.43-.69,7.44,7.44,0,0,0,.43-.63l.57-.6q.29-.31.52-.6t.66-.6l.72-.6q.29-.23.66-.49t.66-.49a7.13,7.13,0,0,1,.75-.43,5.91,5.91,0,0,1,.75-.32,4.69,4.69,0,0,1,.72-.29l.72-.23.72-.11A4.48,4.48,0,0,1,152,.06Zm-9.65,6.78h-7.75l-.2,0a1.06,1.06,0,0,0-.26.09l-.34.23a2,2,0,0,0-.29.23l-.23.26-.23.26a1.1,1.1,0,0,0-.2.29.7.7,0,0,0-.09.23l-2.7,10v.29a.63.63,0,0,0,.06.29.68.68,0,0,0,.09.29.48.48,0,0,0,.2.23.49.49,0,0,0,.2.2l.26.14A.89.89,0,0,0,155,20a1.57,1.57,0,0,0,.32,0h7.24l.29,0a1,1,0,0,0,.29-.09,1.26,1.26,0,0,0,.4-.17l.34-.23a.71.71,0,0,0,.32-.23,1.47,1.47,0,0,1,.32-.29,1.1,1.1,0,0,0,.2-.29.68.68,0,0,0,.09-.29l2.7-10.05a.75.75,0,0,0,0-.57l-.14-.26a1.39,1.39,0,0,0-.2-.26L167,7.15,166.73,7l-.29-.11A1,1,0,0,0,166.16,6.84Z"/><path class="cls-3" d="M185.6,4.38h-.7V.59h-1.3V0h3.31V.59H185.6Zm6.36,0h-.67V.93l-1.38,3.45h-.48L188,.93V4.38h-.61V0h1l1.34,3.29L191,0H192Z"/></g></g></svg>
