<svg xmlns="http://www.w3.org/2000/svg" viewBox="0 0 191.955 41.181">
  <path fill="#FFF" d="M46.178 0l-1.78 6.662h-20.62c-.114 0-.258.02-.43.058-.172.038-.316.077-.43.115-.154.077-.317.153-.49.23-.172.077-.315.153-.43.23-.153.076-.307.172-.46.286-.153.12-.268.23-.344.35-.077.12-.163.24-.258.38-.097.14-.164.26-.2.38l-6.262 23.49c-.038.12-.067.25-.086.41-.02.16-.01.29.03.4.036.12.085.24.142.38.058.14.144.26.26.38l.286.29c.115.12.21.19.287.23.115.04.24.09.373.14.134.06.26.09.374.09h5.973c.115 0 .25-.01.402-.03.153-.02.306-.06.46-.14.114-.04.248-.11.402-.23.152-.11.287-.21.402-.29.15-.07.28-.18.4-.31.11-.13.21-.25.28-.37.11-.11.21-.23.28-.37.07-.13.13-.26.17-.37l2.41-9.08H19.7l1.78-6.6h22.114l-6.548 24.47H6.318c-.383 0-.746-.02-1.09-.06-.346-.03-.653-.09-.92-.17-.307-.04-.594-.12-.862-.26L2.7 40.3c-.23-.15-.46-.323-.69-.515-.23-.19-.44-.38-.63-.57-.155-.23-.298-.47-.432-.717-.135-.25-.258-.49-.373-.72l-.23-.69c-.076-.23-.134-.46-.172-.69-.038-.227-.077-.476-.115-.744S0 35.09 0 34.86c.04-.305.068-.63.086-.975.02-.345.05-.67.087-.977.038-.305.086-.62.143-.947.058-.32.125-.64.2-.94l5.46-20.5c.075-.34.18-.7.315-1.06.14-.36.26-.71.38-1.06.15-.34.32-.69.49-1.03.18-.34.34-.65.49-.91.12-.26.28-.55.49-.86.21-.3.41-.59.61-.86.19-.27.41-.53.63-.8.23-.27.44-.5.63-.69.23-.26.48-.51.75-.74.27-.23.52-.44.75-.63.31-.15.61-.32.89-.51.29-.19.57-.36.84-.51.27-.11.56-.22.87-.31.31-.09.59-.18.86-.26.31-.03.61-.08.89-.14.29-.06.58-.09.89-.09H46.2zm15.737-.058h22.457c.69 0 1.34.058 1.953.172.345.077.66.164.948.26.287.095.546.2.775.315.268.11.526.25.776.43.248.17.488.33.718.48.19.19.382.43.574.71.19.29.344.56.46.83.114.26.22.55.316.86.095.3.16.63.2.97.077.34.124.73.144 1.15.02.42.01.84-.03 1.26-.037.27-.076.57-.114.92-.04.34-.096.69-.172 1.03-.077.34-.153.72-.23 1.12-.077.4-.172.79-.287 1.18l-4.71 17.69c-.114.42-.24.84-.373 1.26-.135.42-.278.82-.43 1.21-.116.38-.26.75-.43 1.12-.174.36-.337.71-.49 1.06-.153.42-.344.81-.574 1.18-.23.36-.46.72-.69 1.06-.268.34-.536.68-.804 1-.268.33-.516.62-.746.89-.422.42-.88.8-1.38 1.15-.497.34-.975.63-1.435.86-.3.15-.63.3-.97.43-.34.14-.69.22-1.03.26-.34.04-.7.09-1.06.14-.36.05-.74.08-1.12.08H50.03c-.307 0-.613-.01-.92-.03-.306-.02-.573-.06-.803-.14-.268-.04-.527-.11-.775-.23-.25-.11-.47-.23-.66-.34-.27-.16-.53-.33-.776-.52-.25-.19-.45-.41-.602-.64-.19-.23-.362-.47-.514-.72-.153-.25-.267-.53-.344-.84-.075-.23-.15-.48-.23-.75-.075-.27-.132-.54-.17-.81-.04-.27-.077-.55-.116-.86-.037-.31-.037-.62 0-.92v-.84c0-.28.04-.58.115-.89.04-.26.086-.54.143-.83.06-.29.11-.56.148-.83l5.4-20.33c.116-.38.24-.79.375-1.21.14-.42.26-.8.38-1.15.15-.35.32-.69.49-1.04l.49-.98c.16-.34.35-.67.58-.976.23-.3.44-.61.63-.92.19-.3.41-.58.66-.83.25-.25.49-.47.72-.66.23-.23.48-.44.75-.63l.81-.57c.27-.15.55-.3.84-.46.29-.15.57-.29.84-.4.35-.11.71-.22 1.09-.31.38-.097.77-.18 1.15-.26.35-.04.72-.086 1.12-.144.4-.06.78-.09 1.12-.09m5.92 6.84c-.19 0-.37.02-.54.055l-.49.12c-.15.077-.31.16-.49.26-.17.096-.32.18-.43.26-.15.113-.3.256-.46.43-.15.17-.28.335-.4.49-.07.19-.16.38-.26.57l-.25.514-6.09 22.8c-.04.12-.05.24-.03.375.02.13.03.26.03.37.04.11.1.24.17.37.08.13.14.24.18.312.12.072.23.16.35.26.12.09.21.16.29.2.12.072.24.13.38.17.13.04.26.054.37.054h7.7c.117 0 .25-.02.4-.05.15-.04.29-.1.4-.18.16-.033.31-.11.46-.23.16-.11.29-.23.41-.34.11-.08.23-.184.34-.32.116-.135.21-.26.29-.374.076-.12.15-.25.23-.41s.13-.29.17-.4L76.8 8.9c.04-.11.06-.25.06-.4v-.4c-.038-.11-.085-.24-.14-.37-.06-.13-.13-.24-.2-.32l-.26-.25c-.1-.09-.2-.16-.32-.2-.117-.032-.23-.08-.346-.14-.12-.06-.23-.09-.346-.09h-7.35z"/>
  <path fill="#F9C804" d="M130.55 0c.23 0 .48.02.747.057.267.038.517.077.746.115.268.077.527.172.776.287.24.11.48.23.71.34.15.07.31.17.49.28s.33.23.49.34c.19.11.36.25.51.4.15.15.28.31.4.46.15.19.29.38.43.57.13.19.26.36.37.52.11.19.22.4.31.63l.26.63c.07.19.12.4.14.63.02.23.03.46.03.69 0 .23-.01.46-.03.69-.02.23-.05.46-.09.69l-7.12 26.53c-.12.46-.31.91-.58 1.37-.12.23-.27.47-.46.71-.19.25-.37.49-.52.72-.15.19-.32.36-.49.52-.17.15-.34.3-.49.46-.16.19-.34.36-.55.51-.21.15-.39.3-.55.46-.23.19-.48.36-.75.51-.27.15-.52.31-.75.46-.23.15-.48.3-.75.43-.27.14-.54.26-.81.37s-.54.22-.83.31c-.29.1-.57.16-.83.2-.27.08-.55.14-.83.17-.29.04-.55.06-.78.06H90l1.724-6.72h21.194c.114 0 .248-.01.402-.03.152-.02.287-.07.402-.15.114-.04.248-.11.402-.2.152-.1.305-.18.46-.26.152-.08.295-.17.43-.29.133-.12.24-.23.316-.35.076-.11.162-.24.258-.37.095-.13.163-.26.2-.37l1.552-5.86h-17c-.308 0-.604-.03-.89-.088-.288-.054-.585-.12-.892-.2-.268-.074-.545-.18-.832-.314-.288-.133-.546-.276-.776-.43-.153-.076-.315-.17-.488-.29-.172-.11-.315-.23-.43-.34-.154-.118-.298-.25-.43-.405-.136-.15-.26-.29-.375-.4-.114-.16-.23-.32-.344-.49s-.23-.36-.345-.55c-.077-.15-.163-.34-.258-.55-.096-.21-.164-.41-.2-.6-.04-.15-.078-.33-.116-.544-.04-.21-.058-.41-.058-.6v-.63c0-.23.038-.44.115-.635L97.24 7.4c.08-.23.15-.46.23-.69.08-.23.17-.44.29-.63.12-.23.26-.46.43-.69.18-.23.32-.44.43-.63.19-.19.39-.39.58-.606.19-.21.37-.41.52-.6.19-.19.41-.39.66-.6l.72-.606c.19-.15.41-.32.66-.49.25-.17.47-.33.66-.49.23-.15.48-.29.75-.43.27-.13.52-.23.75-.31.23-.12.47-.21.72-.29l.72-.23c.23-.04.47-.08.72-.12.25-.04.47-.055.66-.055h23.84zm-9.65 6.777h-7.753c-.038 0-.106.01-.2.03-.097.018-.183.047-.26.085l-.344.23c-.115.077-.21.153-.287.23-.077.077-.154.163-.23.258-.077.096-.153.182-.23.258-.077.077-.143.172-.2.288-.058.114-.087.19-.087.23l-2.7 9.993v.28c0 .11.02.21.05.28 0 .07.03.17.08.29.06.11.12.19.2.23.03.07.1.14.2.2.09.06.18.1.26.14.11.07.22.12.31.14.09.02.2.03.31.03h7.23c.07 0 .17-.01.28-.03.11-.02.21-.05.28-.09.15-.04.29-.1.4-.17l.34-.23c.11-.04.22-.12.31-.23s.2-.21.31-.29c.08-.08.14-.17.2-.29.06-.12.09-.21.09-.29l2.7-10.06c.04-.08.06-.17.06-.29 0-.11-.02-.21-.06-.29-.04-.08-.09-.17-.14-.26-.06-.1-.13-.18-.2-.26-.04-.04-.1-.09-.18-.14-.08-.06-.16-.11-.23-.15-.08-.04-.18-.08-.29-.12-.12-.04-.21-.06-.29-.06M175.81 0c.23 0 .478.02.746.057.267.038.517.077.746.115.268.077.527.172.776.287.25.11.488.23.718.34.153.07.316.17.488.28s.335.23.488.34c.19.11.364.25.517.4.15.15.28.31.4.46.15.19.29.38.43.57.13.19.26.36.37.52.11.19.22.4.31.63l.26.63c.07.19.12.4.14.63.02.23.03.46.03.69 0 .23-.01.46-.03.69-.02.23-.05.46-.09.69L175 33.88c-.114.46-.306.92-.573 1.38-.113.23-.267.47-.46.717-.19.25-.362.49-.515.72-.153.19-.315.36-.488.52-.172.15-.336.3-.488.46-.155.19-.338.36-.548.51-.21.15-.394.3-.546.46-.23.19-.48.36-.747.51-.267.153-.516.31-.745.46-.23.152-.48.3-.748.43-.268.134-.536.26-.804.373s-.545.22-.832.314c-.285.1-.564.166-.83.2-.27.08-.547.14-.834.176-.287.04-.545.06-.775.06h-29.81l1.723-6.72h21.194c.114 0 .248-.01.402-.03.15-.02.284-.068.4-.145.113-.04.25-.106.4-.2.153-.095.306-.18.46-.258.153-.077.296-.173.43-.288.134-.12.24-.23.317-.35.075-.12.16-.24.257-.38.095-.14.163-.26.2-.38l1.552-5.86H145.59c-.307 0-.603-.03-.89-.09-.287-.06-.584-.12-.89-.2-.27-.08-.546-.18-.833-.32-.286-.14-.545-.28-.775-.43-.154-.08-.316-.18-.49-.29-.17-.12-.314-.23-.43-.35-.153-.12-.297-.25-.43-.4-.135-.15-.26-.29-.374-.4-.113-.16-.23-.32-.343-.49s-.23-.36-.345-.55c-.077-.15-.163-.34-.258-.55-.097-.21-.165-.41-.202-.6-.04-.15-.077-.34-.115-.55-.04-.21-.058-.41-.058-.6v-.63c0-.23.037-.44.114-.64l3.22-12.06.23-.69c.08-.23.18-.44.29-.63.12-.23.26-.46.43-.69.18-.23.32-.44.43-.63.19-.19.38-.4.58-.61.19-.21.37-.41.52-.6.19-.19.41-.39.66-.6l.72-.6c.19-.15.41-.32.66-.49.25-.17.47-.33.66-.49.23-.15.48-.297.75-.43.27-.13.52-.24.75-.315.23-.12.47-.21.72-.29l.72-.23c.23-.04.47-.08.72-.12.25-.04.47-.058.66-.058h23.84zm-9.65 6.777h-7.753c-.038 0-.106.01-.2.03-.097.018-.183.047-.26.085l-.344.23c-.115.077-.21.153-.287.23-.077.077-.154.163-.23.258-.077.096-.153.182-.23.258-.076.077-.143.172-.2.288-.058.114-.087.19-.087.23l-2.7 9.993v.28c0 .11.02.21.05.28 0 .07.03.17.08.29.06.11.12.19.2.23.03.07.1.14.2.2.09.06.18.1.26.14.11.07.22.12.31.14.09.02.2.03.31.03h7.23c.07 0 .17-.01.28-.03.11-.02.21-.05.28-.09.15-.04.29-.1.4-.17l.34-.23c.11-.04.22-.12.31-.23s.2-.21.31-.29c.08-.08.14-.17.2-.29.06-.12.09-.21.09-.29l2.7-10.06c.04-.08.06-.17.06-.29 0-.11-.02-.21-.06-.29-.04-.08-.09-.17-.14-.26-.06-.1-.13-.18-.2-.26-.04-.04-.1-.09-.18-.14-.08-.06-.16-.11-.23-.15-.08-.04-.18-.08-.29-.12-.12-.04-.21-.06-.29-.06"/>
  <path fill="#FFF" d="M185.598 4.326h-.697V.534h-1.3v-.546h3.32v.546h-1.31v3.792zm6.357 0h-.67V.874l-1.378 3.452h-.482L188.03.874v3.452h-.608V-.012h.953l1.336 3.29 1.31-3.29h.94v4.338z"/>
</svg>
