<svg xmlns="http://www.w3.org/2000/svg" height="32px" viewBox="0 0 34.29 32">
  <title>social-sc</title>
  <g id="Layer_2" data-name="Layer 2">
    <g id="Layer_1-2" data-name="Layer 1">
      <path fill="#2d3e50" d="M20.57,10.29a1,1,0,0,0,.82-.5,2.2,2.2,0,0,0,.32-1.21,2.2,2.2,0,0,0-.32-1.21.92.92,0,0,0-1.64,0,2.2,2.2,0,0,0-.32,1.21,2.2,2.2,0,0,0,.32,1.21A1,1,0,0,0,20.57,10.29Zm.57,2.14a.61.61,0,1,0-.86-.86,4.32,4.32,0,0,1-6.29,0,.61.61,0,0,0-.86.86,5.44,5.44,0,0,0,4,1.64A5.44,5.44,0,0,0,21.14,12.43ZM13.71,6.86a1,1,0,0,0-.82.5,2.2,2.2,0,0,0-.32,1.21,2.2,2.2,0,0,0,.32,1.21.92.92,0,0,0,1.64,0,2.2,2.2,0,0,0,.32-1.21,2.2,2.2,0,0,0-.32-1.21A1,1,0,0,0,13.71,6.86ZM34.29,23.43a2.87,2.87,0,0,1-.43,1.5,4,4,0,0,1-2.71,1.71,1,1,0,0,0-.39.07l-.39.14a1.17,1.17,0,0,1-.29.07,1.23,1.23,0,0,1-.5.07v.07a4.22,4.22,0,0,1-.29,1.29,1.51,1.51,0,0,1-1.57.86,2.17,2.17,0,0,1-.64-.07l-.18,0-.18,0a12.07,12.07,0,0,0-1.64-.14,3.82,3.82,0,0,0-1.86.43l-1,.71A8.69,8.69,0,0,1,17.14,32a8.69,8.69,0,0,1-5.07-1.93,3.57,3.57,0,0,1-.5-.36,3.57,3.57,0,0,0-.5-.36,3.67,3.67,0,0,0-1.79-.43,12.39,12.39,0,0,0-1.71.14l-.18,0-.18,0a2.17,2.17,0,0,1-.64.07A1.51,1.51,0,0,1,5,28.36a4.22,4.22,0,0,1-.29-1.29V27a1,1,0,0,1-.43-.07A1.17,1.17,0,0,1,4,26.86l-.43-.14a1.35,1.35,0,0,0-.43-.07A4,4,0,0,1,.43,24.93,2.76,2.76,0,0,1,0,23.5V22.43l1.07-.07a5.86,5.86,0,0,0,3.86-1.21Q7.5,18.71,7.5,17.43q0-.14-.29-.36a7.33,7.33,0,0,0-1.43-.57,3.52,3.52,0,0,0-.5-.18,3.52,3.52,0,0,1-.5-.18,1.85,1.85,0,0,1-1.21-2.07,2.15,2.15,0,0,1,2.14-1.93,2,2,0,0,1,.86.14q.43.14,1.21.36-.07-.93-.21-2.14A8.85,8.85,0,0,1,9.64,3.21,9.42,9.42,0,0,1,17.14,0a9.42,9.42,0,0,1,7.5,3.21,8.74,8.74,0,0,1,2.07,7.21q-.14,1.57-.21,2.21a6.78,6.78,0,0,0,1.29-.36,3.91,3.91,0,0,1,.86-.14,2.15,2.15,0,0,1,2.14,1.93,1.92,1.92,0,0,1-1.29,2.07,3.52,3.52,0,0,1-.5.18,3.52,3.52,0,0,0-.5.18,5.06,5.06,0,0,0-1.36.57q-.36.29-.36.36,0,1.29,2.57,3.71a6.69,6.69,0,0,0,3.86,1.21l1.07.07Z"/></g></g></svg>
