<svg xmlns="http://www.w3.org/2000/svg" height="28px" viewBox="0 0 32 32"><defs><style>.cls-1{isolation:isolate;}.cls-2{fill:#2d3e50;}</style></defs><title>social-ig</title><g id="Layer_2" data-name="Layer 2"><g id="Layer_1-2" data-name="Layer 1"><g class="cls-1"><path class="cls-2" d="M31.89,22.6a9.52,9.52,0,0,1-2.58,6.71,9.51,9.51,0,0,1-6.71,2.58c-2.21.13-4.4.1-6.6.1s-4.4,0-6.6-.1a9.51,9.51,0,0,1-6.71-2.58A9.52,9.52,0,0,1,.11,22.6C0,20.4,0,18.21,0,16s0-4.4.1-6.6A9.52,9.52,0,0,1,2.69,2.69,9.51,9.51,0,0,1,9.4.11C11.6,0,13.79,0,16,0s4.4,0,6.6.1a9.51,9.51,0,0,1,6.71,2.58A9.52,9.52,0,0,1,31.89,9.4c.12,2.21.1,4.4.1,6.6S32,20.4,31.89,22.6ZM6.56,3.52A5.11,5.11,0,0,0,4.73,4.73,5.1,5.1,0,0,0,3.52,6.56c-.83,2.1-.65,7.1-.65,9.44s-.19,7.33.65,9.44a5.1,5.1,0,0,0,1.21,1.83,5.11,5.11,0,0,0,1.83,1.21c2.1.83,7.1.65,9.44.65s7.33.19,9.44-.65a5.45,5.45,0,0,0,3-3c.83-2.1.65-7.1.65-9.44s.19-7.33-.65-9.44a5.1,5.1,0,0,0-1.21-1.83,5.11,5.11,0,0,0-1.83-1.21c-2.1-.83-7.1-.65-9.44-.65S8.67,2.69,6.56,3.52ZM16,24.21A8.21,8.21,0,1,1,24.21,16,8.2,8.2,0,0,1,16,24.21Zm0-13.54A5.33,5.33,0,1,0,21.33,16,5.34,5.34,0,0,0,16,10.67Zm8.54-1.29a1.92,1.92,0,1,1,1.92-1.92A1.91,1.91,0,0,1,24.54,9.38Z"/></g></g></g></svg>
