<svg xmlns="http://www.w3.org/2000/svg" height="24px" viewBox="0 0 33.48 32"><defs><style>.cls-1{isolation:isolate;}.cls-2{fill:#2d3e50;}</style></defs><title>social-li</title><g id="Layer_2" data-name="Layer 2"><g id="Layer_1-2" data-name="Layer 1"><g class="cls-1"><path class="cls-2" d="M4,7.46H4A3.71,3.71,0,0,1,0,3.73,3.75,3.75,0,0,1,4.05,0a3.71,3.71,0,0,1,4,3.73A3.72,3.72,0,0,1,4,7.46ZM7.61,32H.41V10.4H7.61Zm25.88,0H26.31V20.45c0-2.9-1-4.88-3.64-4.88A3.93,3.93,0,0,0,19,18.18a5.41,5.41,0,0,0-.24,1.77V32H11.57c.09-19.57,0-21.6,0-21.6h7.17v3.14h0A7.12,7.12,0,0,1,25.22,9.9c4.73,0,8.26,3.1,8.26,9.72Z"/></g></g></g></svg>
