<svg xmlns="http://www.w3.org/2000/svg" height="24px" viewBox="0 0 41.58 32"><title>social-yt</title><g id="Layer_2" data-name="Layer 2"><g id="Layer_1-2" data-name="Layer 1"><path class="cls-2" d="M27.45,16.69l-9.34,4.39a1,1,0,0,1-1,0,1.08,1.08,0,0,1-.43-1V11.9a1,1,0,0,1,.43-.93,1,1,0,0,1,1,0l9.34,4.35q.61.28.61.69T27.45,16.69ZM20.79,0A105.65,105.65,0,0,0,8.91.51,11.84,11.84,0,0,0,2.72,2.68,7.06,7.06,0,0,0,.37,7.51,77.65,77.65,0,0,0,0,16a77.65,77.65,0,0,0,.37,8.49,7.14,7.14,0,0,0,2.36,4.85,11.61,11.61,0,0,0,6.19,2.17A110,110,0,0,0,20.79,32a110,110,0,0,0,11.88-.49,11.61,11.61,0,0,0,6.19-2.17,7.14,7.14,0,0,0,2.36-4.85A77.65,77.65,0,0,0,41.58,16a77.65,77.65,0,0,0-.37-8.49,7.06,7.06,0,0,0-2.36-4.83A11.84,11.84,0,0,0,32.67.51,105.65,105.65,0,0,0,20.79,0Z"/></g></g></svg>
