<svg xmlns="http://www.w3.org/2000/svg" height="32px" viewBox="0 0 50.29 32"><defs><style>.cls-1{isolation:isolate;}.cls-2{fill:#2d3e50;}</style></defs><title>social-gp</title><g id="Layer_2" data-name="Layer 2"><g id="Layer_1-2" data-name="Layer 1"><g class="cls-1"><path class="cls-2" d="M16,32A16,16,0,0,1,16,0,15.28,15.28,0,0,1,26.72,4.19L22.37,8.36A9,9,0,0,0,16,5.89,10,10,0,0,0,6.09,16,10,10,0,0,0,16,26.11c6.33,0,8.71-4.56,9.08-6.9H16v-5.5H31.1a13.58,13.58,0,0,1,.26,2.66C31.37,25.52,25.23,32,16,32ZM50.29,18.29H45.73v4.56H41.15V18.29H36.58V13.71h4.56V9.15h4.58v4.56h4.56Z"/></g></g></g></svg>
