<svg xmlns="http://www.w3.org/2000/svg" preserveAspectRatio="xMidYMid" height="64" viewBox="0 0 96.63 64"><title>tour-dispute</title><g id="Layer_2" data-name="Layer 2"><g id="Layer_1-2" data-name="Layer 1"><path d="M96.42,26.68,83.64,4.88a1.54,1.54,0,0,0-2.14-.53,10.9,10.9,0,0,1-10.74.37C65.85,2.14,61.77.83,58.66.83a18.58,18.58,0,0,0-9.51,2.6l-1.38-.82A18.74,18.74,0,0,0,29.4,2.21l-.24.13a11.29,11.29,0,0,1-9.8.45l-2.8-1.19a1.54,1.54,0,0,0-1.87.54L.27,22.92A1.54,1.54,0,0,0,.56,25L15.8,37.57l-.09.09A6.07,6.07,0,0,0,16,46.24l.23.21a6,6,0,0,0,4.13,1.62h.23l.52,0c0,.06,0,.13,0,.19a6,6,0,0,0,1.93,4.22l.23.21a6,6,0,0,0,4.13,1.62,6.11,6.11,0,0,0,1.36-.16A6,6,0,0,0,30.67,58l.23.21h0A6,6,0,0,0,35,59.83h.23a6.13,6.13,0,0,0,1.21-.17C37.8,61.21,40.82,64,45,64a8.62,8.62,0,0,0,4.86-1.2,10.07,10.07,0,0,0,3.66.72,11.18,11.18,0,0,0,6.22-2.3,6.19,6.19,0,0,0,2.33.45h.23a6.2,6.2,0,0,0,5.83-4.83,6.17,6.17,0,0,0,2.88.71h.23a6.21,6.21,0,0,0,6-5.57,6.22,6.22,0,0,0,6.35-1.72,6.22,6.22,0,0,0-.32-8.79l-2.09-1.94L96,28.7A1.54,1.54,0,0,0,96.42,26.68ZM20.5,45a3,3,0,0,1-2.15-.8h0L18.13,44A3,3,0,0,1,18,39.76l2.51-2.7a3,3,0,0,1,4.23-.15l.22.21a3,3,0,0,1,.15,4.23L22.58,44A3,3,0,0,1,20.5,45Zm4.88,5.4-.23-.21h0A3,3,0,0,1,25,46l6.1-6.57a3,3,0,0,1,2.08-1h.11a3,3,0,0,1,2,.8l.23.21a3,3,0,0,1,.15,4.23l-5.35,5.75h0l-.75.81A3,3,0,0,1,25.38,50.39Zm9.76,6.36A3,3,0,0,1,33,56l-.23-.21a3,3,0,0,1-.16-4.23L38,45.77h0l.83-.89A3,3,0,0,1,43,44.72l.22.21a3,3,0,0,1,.83,3,1.52,1.52,0,0,0-.19.5,3,3,0,0,1-.49.7L37.22,55.8a3,3,0,0,1-.66.53,1.52,1.52,0,0,0-.47.21l0,0A3,3,0,0,1,35.14,56.75Zm4.1,1.38.24-.23,6.18-6.64.07-.09a4,4,0,0,1,1.18,2.07,3.27,3.27,0,0,1-.49,1.67,6.11,6.11,0,0,0-.81,3,4.27,4.27,0,0,0,1.2,2.86,8.76,8.76,0,0,1-1.78.17A8.45,8.45,0,0,1,39.24,58.13Zm42.08-10a3.15,3.15,0,0,1-4.43.18L61.55,33.1a1.54,1.54,0,1,0-2.17,2.18L69.19,45h0l3.95,4,0,0a3.14,3.14,0,0,1-4.26,4.62L67.29,52a6.15,6.15,0,0,0-.95-1.13L62,46.81l-4.27-4.24a1.54,1.54,0,1,0-2.17,2.18L64.86,54A3.14,3.14,0,0,1,60,57.77l-5.35-5.25a1.54,1.54,0,1,0-2.16,2.2l4.65,4.56a7.26,7.26,0,0,1-3.57,1.16c-2.76,0-4.86-1.7-4.86-2.55a3.17,3.17,0,0,1,.48-1.61A6.22,6.22,0,0,0,50,53.23c0-2-1.71-4-2.82-5a6.06,6.06,0,0,0-1.83-5.56l-.22-.21a6,6,0,0,0-4.35-1.62,6.12,6.12,0,0,0-1.21.17,6,6,0,0,0-1.9-3.82L37.42,37a6.07,6.07,0,0,0-8.58.31l-.17.18A6,6,0,0,0,27,34.85l-.22-.21a6.07,6.07,0,0,0-8.58.31l-.33.35L3.61,23.51l12.9-18.6,1.64.7A14.35,14.35,0,0,0,30.62,5l.24-.13a15.65,15.65,0,0,1,15.33.34l.18.11a29.42,29.42,0,0,0-5.71,6.36A39,39,0,0,0,36.43,20,20.45,20.45,0,0,0,35,26.13a4.78,4.78,0,0,0,5,5c3.86,0,6.88-3.58,9.8-7,2.08-2.46,4.22-5,6.12-5.45l21.6,22a1.53,1.53,0,0,0,.69.4l3,2.75a3.14,3.14,0,0,1,.16,4.44Zm-2.55-10.7L57.58,15.93a1.54,1.54,0,0,0-1.1-.46c-3.46,0-6.3,3.36-9,6.62C45,25,42.42,28,40,28a1.71,1.71,0,0,1-1.91-1.91c0-4.24,6.86-22.22,20.58-22.22,2.61,0,6.2,1.19,10.68,3.54a14,14,0,0,0,12.4.27L93.06,27Z"/></g></g></svg>
