<svg xmlns="http://www.w3.org/2000/svg" preserveAspectRatio="xMidYMid" height="64" viewBox="0 0 79.05 64"><title>tour-playingfield</title><g id="Layer_2" data-name="Layer 2"><g id="Layer_1-2" data-name="Layer 1"><circle cx="63.61" cy="39.47" r="1.42"/><circle cx="63.61" cy="37.16" r="0.41"/><circle cx="65.91" cy="39.47" r="0.41"/><circle cx="61.31" cy="39.47" r="0.41"/><circle cx="65.24" cy="37.84" r="0.41" transform="translate(-7.65 57.21) rotate(-45)"/><circle cx="61.99" cy="41.09" r="0.41" transform="translate(-10.9 55.87) rotate(-45)"/><circle cx="61.99" cy="37.84" r="0.41" transform="translate(-8.6 54.91) rotate(-45)"/><circle cx="65.24" cy="41.09" r="0.41" transform="translate(-9.95 58.17) rotate(-45)"/><circle cx="15.43" cy="39.46" r="1.42"/><circle cx="15.43" cy="37.16" r="0.41"/><circle cx="17.74" cy="39.46" r="0.41"/><circle cx="13.13" cy="39.46" r="0.41"/><circle cx="17.06" cy="37.84" r="0.41" transform="translate(-21.76 23.15) rotate(-45)"/><circle cx="13.81" cy="41.09" r="0.41" transform="translate(-25.01 21.8) rotate(-45)"/><circle cx="13.81" cy="37.84" r="0.41" transform="translate(-22.71 20.85) rotate(-45)"/><circle cx="17.06" cy="41.09" r="0.41" transform="translate(-24.06 24.1) rotate(-45)"/><path d="M79,43.15a1.3,1.3,0,0,0-.09-.44v0L64.83,7.7h0l0-.06a1.3,1.3,0,0,0-.22-.32l-.1-.09A1.29,1.29,0,0,0,64.2,7L64.07,7a1.29,1.29,0,0,0-.46-.09H45.19a5.83,5.83,0,0,0-4.35-4.35V1.31a1.31,1.31,0,0,0-2.62,0V2.52a5.83,5.83,0,0,0-4.36,4.36H15.43A1.29,1.29,0,0,0,15,7L14.85,7a1.29,1.29,0,0,0-.27.18l-.1.09a1.3,1.3,0,0,0-.22.32l0,.06h0L.11,42.67v0a1.3,1.3,0,0,0-.09.44s0,0,0,0,0,0,0,.07a1.3,1.3,0,0,0,0,.14c.17,5.3,6.87,9.42,15.42,9.42s15.25-4.12,15.42-9.42a1.3,1.3,0,0,0,0-.14s0,0,0-.07,0,0,0,0a1.3,1.3,0,0,0-.09-.44v0L17.38,9.5H33.86a5.83,5.83,0,0,0,4.36,4.36V61.38H17.08a1.31,1.31,0,0,0,0,2.62H62a1.31,1.31,0,1,0,0-2.62H40.84V13.85A5.83,5.83,0,0,0,45.19,9.5H61.67L48.29,42.67v0a1.3,1.3,0,0,0-.09.45s0,0,0,0,0,0,0,.06a1.3,1.3,0,0,0,0,.14c.17,5.3,6.87,9.42,15.42,9.42S78.86,48.69,79,43.39a1.3,1.3,0,0,0,0-.14s0,0,0-.07S79,43.17,79,43.15Zm-63.61,7C9.32,50.19,4,47.7,2.86,44.51H28C26.84,47.7,21.55,50.19,15.43,50.19ZM9.68,39.46a5.75,5.75,0,1,1,11,2.41H20.3a5.43,5.43,0,1,0-9.72,0h-.36A5.72,5.72,0,0,1,9.68,39.46Zm5.75,1.89a.41.41,0,0,0-.41.41.4.4,0,0,0,0,.11H11.29a4.76,4.76,0,0,1-.67-2.41,4.81,4.81,0,1,1,9.63,0,4.76,4.76,0,0,1-.67,2.41H15.82a.4.4,0,0,0,0-.11A.41.41,0,0,0,15.43,41.35Zm12.18.52H23.79l-.12,0A8.53,8.53,0,0,0,24,40.37h.13a.4.4,0,0,0,.4-.4V38.88a.4.4,0,0,0-.4-.4H24A8.53,8.53,0,0,0,23.67,37l.12,0a.4.4,0,0,0,.22-.52l-.42-1a.4.4,0,0,0-.52-.22l-.12,0a8.58,8.58,0,0,0-.82-1.22l.09-.09a.4.4,0,0,0,0-.57l-.77-.77a.4.4,0,0,0-.57,0l-.09.09a8.59,8.59,0,0,0-1.23-.82l0-.12a.4.4,0,0,0-.22-.52l-1-.42a.4.4,0,0,0-.52.22l0,.12a8.53,8.53,0,0,0-1.45-.29v-.13a.4.4,0,0,0-.4-.4H14.89a.4.4,0,0,0-.4.4v.13a8.53,8.53,0,0,0-1.45.29l0-.12a.4.4,0,0,0-.52-.22l-1,.42a.4.4,0,0,0-.22.52l0,.12a8.58,8.58,0,0,0-1.22.82L10,32.64a.4.4,0,0,0-.57,0l-.77.77a.4.4,0,0,0,0,.57l.09.09a8.59,8.59,0,0,0-.82,1.23l-.12,0a.4.4,0,0,0-.52.22l-.42,1a.4.4,0,0,0,.22.52l.12,0a8.53,8.53,0,0,0-.29,1.45H6.78a.4.4,0,0,0-.4.4V40a.4.4,0,0,0,.4.4h.13a8.53,8.53,0,0,0,.29,1.45l-.12,0H3.26L15.43,11.69ZM39.52,11.39a3.2,3.2,0,1,1,3.2-3.2A3.2,3.2,0,0,1,39.52,11.39Zm24.09.31L75.79,41.88H72l-.12,0a8.53,8.53,0,0,0,.29-1.45h.13a.4.4,0,0,0,.4-.4V38.88a.4.4,0,0,0-.4-.4h-.13A8.54,8.54,0,0,0,71.85,37L72,37a.4.4,0,0,0,.22-.52l-.42-1a.4.4,0,0,0-.52-.22l-.12,0a8.59,8.59,0,0,0-.82-1.22L70.4,34a.4.4,0,0,0,0-.57l-.77-.77a.4.4,0,0,0-.57,0l-.09.09a8.59,8.59,0,0,0-1.23-.82l0-.12a.4.4,0,0,0-.22-.52l-1-.42a.4.4,0,0,0-.52.22l0,.12a8.53,8.53,0,0,0-1.45-.29v-.13a.4.4,0,0,0-.4-.4H63.07a.4.4,0,0,0-.4.4v.13a8.53,8.53,0,0,0-1.45.29l0-.12a.4.4,0,0,0-.52-.22l-1,.42a.4.4,0,0,0-.22.52l0,.12a8.58,8.58,0,0,0-1.22.82l-.09-.09a.4.4,0,0,0-.57,0l-.77.77a.4.4,0,0,0,0,.57l.09.09a8.59,8.59,0,0,0-.82,1.23l-.12,0a.4.4,0,0,0-.52.22l-.42,1a.4.4,0,0,0,.22.52l.12,0a8.53,8.53,0,0,0-.29,1.45H55a.4.4,0,0,0-.4.4V40a.4.4,0,0,0,.4.4h.13a8.54,8.54,0,0,0,.29,1.45l-.12,0H51.44Zm0,29.66a.41.41,0,0,0-.41.41.4.4,0,0,0,0,.11h-2.5a3.75,3.75,0,0,1-.89-2.41,3.78,3.78,0,1,1,7.57,0,3.75,3.75,0,0,1-.89,2.41H64a.4.4,0,0,0,0-.11A.41.41,0,0,0,63.61,41.35ZM59,40a.5.5,0,1,1,.5-.5A.5.5,0,0,1,59,40Zm1-4.1a.5.5,0,1,1,0,.7A.5.5,0,0,1,60,35.86Zm3.11-1a.5.5,0,1,1,.5.5A.5.5,0,0,1,63.12,34.86Zm3.4,1a.5.5,0,1,1,0,.7A.5.5,0,0,1,66.52,35.86Zm1.2,3.61a.5.5,0,1,1,.5.5A.5.5,0,0,1,67.73,39.47Zm1.32,0a5.43,5.43,0,1,0-10.29,2.41H58.4a5.75,5.75,0,1,1,10.44,0h-.36A5.39,5.39,0,0,0,69,39.47ZM63.61,50.19c-6.12,0-11.4-2.49-12.57-5.68H76.18C75,47.7,69.73,50.19,63.61,50.19Z"/></g></g></svg>
