<svg xmlns="http://www.w3.org/2000/svg" preserveAspectRatio="xMidYMid" height="92" viewBox="0 0 60.35 64"><title>tour-keepmoney</title><g id="Layer_2" data-name="Layer 2"><g id="Layer_1-2" data-name="Layer 1"><path d="M50.13,17.14a.67.67,0,0,1-.33-1.24l4.38-2.53a.67.67,0,1,1,.67,1.15l-4.38,2.53A.66.66,0,0,1,50.13,17.14Z"/><path d="M30.35,7.34a.67.67,0,0,1-.67-.67v-6A.67.67,0,1,1,31,.67v6A.67.67,0,0,1,30.35,7.34Z"/><path d="M59.69,27h-6a.67.67,0,0,1,0-1.33h6a.67.67,0,0,1,0,1.33Z"/><path d="M6.68,27h-6a.67.67,0,0,1,0-1.33h6a.67.67,0,0,1,0,1.33Z"/><path d="M18.52,9.16a.67.67,0,0,1-.61-.41L15.77,3.62A.67.67,0,0,1,17,3.11l2.13,5.13a.67.67,0,0,1-.61.92Z"/><path d="M42.18,9.48a.67.67,0,0,1-.61-.92l2.13-5.13a.67.67,0,0,1,1.23.51L42.79,9.07A.67.67,0,0,1,42.18,9.48Z"/><path d="M11,17.72a.66.66,0,0,1-.33-.09l-5.21-3a.67.67,0,1,1,.67-1.15l5.21,3A.67.67,0,0,1,11,17.72Z"/><path d="M29.72,19.88a.68.68,0,1,1-1.36,0,.6.6,0,0,0-1.2,0A1.88,1.88,0,1,0,29,18a.6.6,0,0,0,0,1.2.68.68,0,0,1,.68.68"/><path d="M15.85,28.28h-.53a.27.27,0,1,1,0-.53h.53a.27.27,0,0,1,0,.53Z"/><path d="M41.85,28.28H40.79a.27.27,0,0,1,0-.53h1.06a.27.27,0,0,1,0,.53Zm-3.72,0H37.08a.27.27,0,0,1,0-.53h1.06a.27.27,0,0,1,0,.53Zm-3.72,0H33.36a.27.27,0,0,1,0-.53h1.06a.27.27,0,1,1,0,.53Zm-3.72,0H29.65a.27.27,0,0,1,0-.53h1.06a.27.27,0,0,1,0,.53Zm-3.72,0H25.93a.27.27,0,0,1,0-.53H27a.27.27,0,0,1,0,.53Zm-3.71,0H22.22a.27.27,0,0,1,0-.53h1.06a.27.27,0,0,1,0,.53Zm-3.72,0H18.5a.27.27,0,0,1,0-.53h1.06a.27.27,0,0,1,0,.53Z"/><path d="M45,28.28h-.53a.27.27,0,1,1,0-.53H45a.27.27,0,0,1,0,.53Z"/><path d="M15.85,31.15h-.53a.27.27,0,0,1,0-.53h.53a.27.27,0,0,1,0,.53Z"/><path d="M41.85,31.15H40.79a.27.27,0,1,1,0-.53h1.06a.27.27,0,0,1,0,.53Zm-3.72,0H37.08a.27.27,0,0,1,0-.53h1.06a.27.27,0,0,1,0,.53Zm-3.72,0H33.36a.27.27,0,0,1,0-.53h1.06a.27.27,0,1,1,0,.53Zm-3.72,0H29.65a.27.27,0,1,1,0-.53h1.06a.27.27,0,0,1,0,.53Zm-3.72,0H25.93a.27.27,0,1,1,0-.53H27a.27.27,0,0,1,0,.53Zm-3.71,0H22.22a.27.27,0,1,1,0-.53h1.06a.27.27,0,0,1,0,.53Zm-3.72,0H18.5a.27.27,0,0,1,0-.53h1.06a.27.27,0,0,1,0,.53Z"/><path d="M45,31.15h-.53a.27.27,0,1,1,0-.53H45a.27.27,0,0,1,0,.53Z"/><path d="M17.35,27.24a.27.27,0,0,1-.27-.27v-.53a.27.27,0,0,1,.53,0V27A.27.27,0,0,1,17.35,27.24Z"/><path d="M17.35,51.84a.27.27,0,0,1-.27-.27V50.5a.27.27,0,0,1,.53,0v1.08A.27.27,0,0,1,17.35,51.84Zm0-3.51a.27.27,0,0,1-.27-.27V47a.27.27,0,0,1,.53,0v1.08A.27.27,0,0,1,17.35,48.33Zm0-3.51a.27.27,0,0,1-.27-.27V43.47a.27.27,0,0,1,.53,0v1.08A.27.27,0,0,1,17.35,44.81Zm0-3.51a.27.27,0,0,1-.27-.27V40a.27.27,0,0,1,.53,0V41A.27.27,0,0,1,17.35,41.3Zm0-3.51a.27.27,0,0,1-.27-.27V36.44a.27.27,0,0,1,.53,0v1.08A.27.27,0,0,1,17.35,37.79Zm0-3.51a.27.27,0,0,1-.27-.27V32.92a.27.27,0,0,1,.53,0V34A.27.27,0,0,1,17.35,34.27Zm0-3.51a.27.27,0,0,1-.27-.27V29.41a.27.27,0,0,1,.53,0v1.08A.27.27,0,0,1,17.35,30.76Z"/><path d="M17.35,54.81a.27.27,0,0,1-.27-.27V54a.27.27,0,0,1,.53,0v.53A.27.27,0,0,1,17.35,54.81Z"/><path d="M43.11,27.24a.27.27,0,0,1-.27-.27v-.53a.27.27,0,0,1,.53,0V27A.27.27,0,0,1,43.11,27.24Z"/><path d="M43.11,51.84a.27.27,0,0,1-.27-.27V50.5a.27.27,0,0,1,.53,0v1.08A.27.27,0,0,1,43.11,51.84Zm0-3.51a.27.27,0,0,1-.27-.27V47a.27.27,0,0,1,.53,0v1.08A.27.27,0,0,1,43.11,48.33Zm0-3.51a.27.27,0,0,1-.27-.27V43.47a.27.27,0,0,1,.53,0v1.08A.27.27,0,0,1,43.11,44.81Zm0-3.51a.27.27,0,0,1-.27-.27V40a.27.27,0,0,1,.53,0V41A.27.27,0,0,1,43.11,41.3Zm0-3.51a.27.27,0,0,1-.27-.27V36.44a.27.27,0,0,1,.53,0v1.08A.27.27,0,0,1,43.11,37.79Zm0-3.51a.27.27,0,0,1-.27-.27V32.92a.27.27,0,0,1,.53,0V34A.27.27,0,0,1,43.11,34.27Zm0-3.51a.27.27,0,0,1-.27-.27V29.41a.27.27,0,0,1,.53,0v1.08A.27.27,0,0,1,43.11,30.76Z"/><path d="M43.11,54.81a.27.27,0,0,1-.27-.27V54a.27.27,0,0,1,.53,0v.53A.27.27,0,0,1,43.11,54.81Z"/><path d="M35.6,46.73a4.42,4.42,0,0,1-1.16,3.06,5,5,0,0,1-3,1.59v2a.36.36,0,0,1-.37.37H29.5a.38.38,0,0,1-.37-.37v-2A7.33,7.33,0,0,1,27.64,51a7.14,7.14,0,0,1-2-1.08,6.64,6.64,0,0,1-.54-.44l-.2-.21a.35.35,0,0,1,0-.48L26,47.25a.36.36,0,0,1,.27-.14.29.29,0,0,1,.28.1l0,0a6.07,6.07,0,0,0,2.83,1.45,4.06,4.06,0,0,0,.86.09,2.82,2.82,0,0,0,1.66-.5,1.63,1.63,0,0,0,.72-1.42,1.18,1.18,0,0,0-.17-.62,2.18,2.18,0,0,0-.39-.49,3.19,3.19,0,0,0-.68-.44L30.65,45l-.93-.38L29,44.28,28.29,44q-.45-.2-.73-.36l-.66-.41a4.1,4.1,0,0,1-.62-.49,7.23,7.23,0,0,1-.51-.57,2.85,2.85,0,0,1-.41-.67,4.66,4.66,0,0,1-.24-.77,4,4,0,0,1-.1-.91A4,4,0,0,1,26.16,37a5.32,5.32,0,0,1,3-1.56V33.32a.38.38,0,0,1,.37-.37h1.57a.36.36,0,0,1,.37.37v2a6.47,6.47,0,0,1,1.29.27,7.45,7.45,0,0,1,1,.39,5.6,5.6,0,0,1,.74.44q.35.24.45.34l.17.16a.34.34,0,0,1,.06.44l-.94,1.7a.32.32,0,0,1-.27.19.37.37,0,0,1-.31-.08l-.17-.14L33,38.75a6,6,0,0,0-.68-.37,5.19,5.19,0,0,0-.87-.3,3.88,3.88,0,0,0-1-.13,3,3,0,0,0-1.8.5,1.56,1.56,0,0,0-.6,1.85,1.31,1.31,0,0,0,.34.48,5.12,5.12,0,0,0,.46.38,4.1,4.1,0,0,0,.65.36l.7.31.81.32.94.37q.33.13.88.41a7,7,0,0,1,.88.49,7.42,7.42,0,0,1,.72.58,3,3,0,0,1,.62.74,4.21,4.21,0,0,1,.37.89A3.84,3.84,0,0,1,35.6,46.73Z"/><path d="M15.79,51.92a.26.26,0,0,1-.12,0l-.48-.24a.27.27,0,0,1,.24-.48l.48.24a.27.27,0,0,1-.12.5Z"/><path d="M27.71,57.84a.26.26,0,0,1-.12,0l-1-.49a.27.27,0,1,1,.24-.48l1,.49a.27.27,0,0,1-.12.5Zm-3-1.48a.26.26,0,0,1-.12,0l-1-.49a.27.27,0,1,1,.24-.48l1,.49a.27.27,0,0,1-.12.5Zm-3-1.48a.26.26,0,0,1-.12,0l-1-.49a.27.27,0,1,1,.24-.48l1,.49a.27.27,0,0,1-.12.5Zm-3-1.48a.26.26,0,0,1-.12,0l-1-.49a.27.27,0,1,1,.24-.48l1,.49a.27.27,0,0,1-.12.5Z"/><path d="M30.18,59.1l-.6-.3a.27.27,0,0,1,.24-.48l.36.18.36-.18a.27.27,0,1,1,.24.48Z"/><path d="M32.64,57.84a.27.27,0,0,1-.12-.5l1-.49a.27.27,0,1,1,.24.48l-1,.49Zm3-1.48a.27.27,0,0,1-.12-.5l1-.49a.27.27,0,1,1,.24.48l-1,.49Zm3-1.48a.27.27,0,0,1-.12-.5l1-.49a.27.27,0,0,1,.24.48l-1,.49Zm3-1.48a.27.27,0,0,1-.12-.5l1-.49a.27.27,0,1,1,.24.48l-1,.49Z"/><path d="M44.56,51.92a.27.27,0,0,1-.12-.5l.48-.24a.27.27,0,0,1,.24.48l-.48.24A.26.26,0,0,1,44.56,51.92Z"/><path d="M45.21,22.87H42.68V16.3a1.24,1.24,0,0,0-1.24-1.24h-.93v-.92a1.24,1.24,0,0,0-1.24-1.24l-20.49,0a1.24,1.24,0,0,0-1.24,1.24v8.77H15.14A3.17,3.17,0,0,0,12,26V53.34a3.14,3.14,0,0,0,1.75,2.83l15,7.5a3.18,3.18,0,0,0,2.82,0l15-7.5a3.14,3.14,0,0,0,1.75-2.83V26A3.17,3.17,0,0,0,45.21,22.87Zm-4.69-6.62h.93s0,0,0,0v6.57h-1Zm-21.78-.32V14.1a0,0,0,0,1,0,0l20.49,0s0,0,0,0v8.74H38v-3a.6.6,0,0,0-.6-.6A3.24,3.24,0,0,1,34.13,16a.6.6,0,0,0-.6-.6h-9a.6.6,0,0,0-.6.6,3.24,3.24,0,0,1-3.25,3.24.6.6,0,0,0-.6.6v3H18.74Zm18,6.94H21.31V20.42a4.45,4.45,0,0,0,3.81-3.8H33a4.45,4.45,0,0,0,3.8,3.81Zm9.49,30.47a1,1,0,0,1-.57.92l-15,7.5a1,1,0,0,1-.92,0l-15-7.5a1,1,0,0,1-.57-.92V26a1,1,0,0,1,1-1H45.21a1,1,0,0,1,1,1Z"/></g></g></svg>
