<svg xmlns="http://www.w3.org/2000/svg" xmlns:xlink="http://www.w3.org/1999/xlink" preserveAspectRatio="xMidYMid" width="57.5" height="64" viewBox="0 0 57.5 64">
  <defs>
    <style>
      .cls-1 {
        fill: #f6c636;
        fill-rule: evenodd;
      }
    </style>
  </defs>
  <path d="M51.636,63.999 L5.869,63.999 C2.633,63.999 0.000,61.381 0.000,58.163 L0.000,12.075 C0.000,8.857 2.633,6.239 5.869,6.239 L6.496,6.239 L6.496,8.774 L5.869,8.774 C4.039,8.774 2.550,10.255 2.550,12.075 L2.550,19.522 L54.955,19.522 L54.955,12.075 C54.955,10.255 53.466,8.774 51.636,8.774 L50.497,8.774 L50.497,6.239 L51.636,6.239 C54.872,6.239 57.505,8.857 57.505,12.075 L57.505,58.163 C57.505,61.381 54.872,63.999 51.636,63.999 ZM54.955,22.058 L2.550,22.058 L2.550,58.163 C2.550,59.983 4.039,61.464 5.869,61.464 L51.636,61.464 C53.466,61.464 54.955,59.983 54.955,58.163 L54.955,22.058 ZM47.894,31.405 C45.643,31.464 43.387,31.464 41.135,31.409 C39.895,31.380 39.025,30.374 39.056,29.203 C39.090,28.002 39.967,27.129 41.226,27.098 C42.329,27.071 43.432,27.092 44.535,27.092 C44.535,27.092 44.535,27.091 44.535,27.090 C45.615,27.090 46.696,27.069 47.775,27.096 C49.016,27.125 49.940,28.025 49.973,29.189 C50.006,30.345 49.121,31.374 47.894,31.405 ZM41.201,39.853 C43.451,39.795 45.704,39.807 47.953,39.869 C49.143,39.900 49.962,40.838 49.972,41.970 C49.982,43.118 49.122,44.069 47.921,44.124 C46.774,44.177 45.622,44.136 44.473,44.136 C44.474,44.139 44.474,44.143 44.474,44.146 C43.441,44.146 42.409,44.158 41.376,44.143 C40.010,44.124 39.079,43.270 39.053,42.042 C39.028,40.827 39.866,39.888 41.201,39.853 ZM32.134,31.405 C29.882,31.464 27.626,31.464 25.375,31.409 C24.134,31.380 23.264,30.374 23.296,29.203 C23.329,28.002 24.207,27.129 25.466,27.098 C26.569,27.071 27.673,27.092 28.776,27.092 C28.775,27.092 28.775,27.091 28.775,27.090 C29.855,27.090 30.935,27.069 32.014,27.096 C33.255,27.125 34.180,28.025 34.213,29.189 C34.245,30.345 33.361,31.374 32.134,31.405 ZM25.442,39.853 C27.691,39.795 29.945,39.807 32.194,39.869 C33.383,39.900 34.203,40.838 34.213,41.970 C34.223,43.118 33.363,44.069 32.161,44.124 C31.014,44.177 29.863,44.136 28.713,44.136 C28.713,44.139 28.713,44.143 28.713,44.146 C27.681,44.146 26.649,44.158 25.617,44.143 C24.251,44.124 23.320,43.270 23.293,42.042 C23.268,40.827 24.106,39.888 25.442,39.853 ZM16.372,31.405 C14.120,31.464 11.864,31.464 9.613,31.409 C8.372,31.380 7.502,30.374 7.534,29.203 C7.567,28.002 8.445,27.129 9.704,27.098 C10.807,27.071 11.911,27.092 13.014,27.092 C13.014,27.092 13.014,27.091 13.014,27.090 C14.094,27.090 15.174,27.069 16.253,27.096 C17.494,27.125 18.417,28.025 18.451,29.189 C18.483,30.345 17.599,31.374 16.372,31.405 ZM9.680,39.853 C11.929,39.795 14.182,39.807 16.432,39.869 C17.621,39.900 18.440,40.838 18.450,41.970 C18.460,43.118 17.600,44.069 16.399,44.124 C15.252,44.177 14.101,44.136 12.951,44.136 C12.951,44.139 12.951,44.143 12.951,44.146 C11.919,44.146 10.887,44.158 9.854,44.143 C8.489,44.124 7.558,43.270 7.531,42.042 C7.505,40.827 8.344,39.888 9.680,39.853 ZM9.513,52.606 C11.834,52.554 14.158,52.552 16.479,52.604 C17.648,52.631 18.506,53.684 18.449,54.828 C18.392,55.988 17.487,56.843 16.288,56.870 C16.241,56.872 16.194,56.871 16.147,56.871 C15.091,56.870 14.035,56.870 12.980,56.870 C11.877,56.870 10.775,56.881 9.672,56.867 C8.475,56.853 7.585,55.985 7.535,54.811 C7.486,53.656 8.334,52.631 9.513,52.606 ZM25.273,52.606 C27.595,52.554 29.919,52.552 32.240,52.604 C33.407,52.631 34.266,53.684 34.208,54.828 C34.152,55.988 33.247,56.843 32.047,56.870 C32.000,56.872 31.953,56.871 31.906,56.871 C30.851,56.870 29.796,56.870 28.741,56.870 C27.637,56.870 26.536,56.881 25.432,56.867 C24.235,56.853 23.345,55.985 23.295,54.811 C23.246,53.656 24.094,52.631 25.273,52.606 ZM41.034,52.606 C43.356,52.554 45.680,52.552 48.001,52.604 C49.169,52.631 50.027,53.684 49.970,54.828 C49.913,55.988 49.008,56.843 47.808,56.870 C47.761,56.872 47.715,56.871 47.667,56.871 C46.613,56.870 45.557,56.870 44.501,56.870 C43.398,56.870 42.296,56.881 41.192,56.867 C39.996,56.853 39.105,55.985 39.056,54.811 C39.006,53.656 39.855,52.631 41.034,52.606 ZM45.099,15.856 C43.165,15.830 42.214,14.605 42.147,12.751 C42.084,11.078 42.133,9.400 42.136,7.724 C42.138,6.124 42.078,4.522 42.154,2.925 C42.239,1.139 43.290,0.035 45.056,0.002 C46.953,-0.034 48.068,1.126 48.114,2.999 C48.195,6.274 48.197,9.552 48.112,12.826 C48.064,14.666 47.036,15.883 45.099,15.856 ZM17.200,6.239 L39.793,6.239 L39.793,8.774 L17.200,8.774 L17.200,6.239 ZM14.856,12.640 C14.778,14.657 13.511,15.996 11.761,15.870 C9.859,15.732 8.854,14.606 8.832,12.721 C8.798,9.517 8.805,6.313 8.830,3.108 C8.844,1.181 9.950,0.041 11.796,0.004 C13.667,-0.033 14.763,1.139 14.848,3.028 C14.922,4.627 14.864,6.232 14.866,7.834 C14.868,9.436 14.917,11.040 14.856,12.640 Z" class="cls-1"/>
</svg>
