<svg xmlns="http://www.w3.org/2000/svg" preserveAspectRatio="xMidYMid" height="92" viewBox="0 -10 94.58 80"><title>tour-payment</title><g id="Layer_2" data-name="Layer 2"><g id="Layer_1-2" data-name="Layer 1"><path d="M23.47,20.37a4.1,4.1,0,0,1-1.07,2.84,4.63,4.63,0,0,1-2.79,1.47v1.89a.33.33,0,0,1-.35.35H17.81a.35.35,0,0,1-.35-.35V24.68a6.8,6.8,0,0,1-1.38-.33,6.62,6.62,0,0,1-1.89-1,6.16,6.16,0,0,1-.5-.4l-.19-.19a.33.33,0,0,1,0-.44l1.11-1.46a.34.34,0,0,1,.25-.13.27.27,0,0,1,.26.1l0,0a5.63,5.63,0,0,0,2.62,1.35,3.77,3.77,0,0,0,.8.09,2.62,2.62,0,0,0,1.54-.46,1.51,1.51,0,0,0,.66-1.32,1.09,1.09,0,0,0-.16-.57,2,2,0,0,0-.36-.45,3,3,0,0,0-.63-.4l-.71-.35L18,18.37l-.66-.27-.66-.29q-.42-.19-.67-.33l-.61-.38a3.8,3.8,0,0,1-.58-.46,6.71,6.71,0,0,1-.47-.53,2.64,2.64,0,0,1-.38-.63,4.32,4.32,0,0,1-.23-.72,3.75,3.75,0,0,1-.09-.84,3.69,3.69,0,0,1,1.06-2.61,4.94,4.94,0,0,1,2.75-1.45V7.93a.35.35,0,0,1,.35-.35h1.46a.33.33,0,0,1,.35.35v1.9a6,6,0,0,1,1.19.25,6.91,6.91,0,0,1,.94.36,5.2,5.2,0,0,1,.69.4l.42.31.16.15a.31.31,0,0,1,.05.41l-.87,1.58a.29.29,0,0,1-.25.17.34.34,0,0,1-.29-.08l-.16-.13L21.07,13a5.57,5.57,0,0,0-.63-.35,4.82,4.82,0,0,0-.8-.28,3.6,3.6,0,0,0-.92-.12,2.8,2.8,0,0,0-1.67.46,1.45,1.45,0,0,0-.56,1.72,1.21,1.21,0,0,0,.32.45,4.75,4.75,0,0,0,.43.36,3.8,3.8,0,0,0,.6.33l.65.29.76.3.87.34q.3.12.82.38a6.52,6.52,0,0,1,.81.46,6.88,6.88,0,0,1,.67.54,2.8,2.8,0,0,1,.57.69,3.9,3.9,0,0,1,.34.83A3.56,3.56,0,0,1,23.47,20.37Z"/><path d="M71.64,47.43a.86.86,0,0,0,.86.86,1,1,0,1,1-1,1,.86.86,0,1,0-1.72,0,2.7,2.7,0,1,0,2.7-2.7.86.86,0,0,0-.86.86"/><path d="M73.54,10.67a1,1,0,1,1-2,0,.86.86,0,0,0-1.72,0A2.7,2.7,0,1,0,72.56,8a.86.86,0,0,0,0,1.72,1,1,0,0,1,1,1"/><path d="M84.11,31.8a2.11,2.11,0,0,1-.55,1.46,2.38,2.38,0,0,1-1.43.76v1a.17.17,0,0,1-.18.18H81.2A.18.18,0,0,1,81,35V34a3.49,3.49,0,0,1-.71-.17,3.4,3.4,0,0,1-1-.51l-.26-.21L79,33a.17.17,0,0,1,0-.23l.57-.75a.17.17,0,0,1,.13-.07.14.14,0,0,1,.13,0h0a2.89,2.89,0,0,0,1.35.69,1.93,1.93,0,0,0,.41,0,1.34,1.34,0,0,0,.79-.24.78.78,0,0,0,.34-.68.56.56,0,0,0-.08-.29,1,1,0,0,0-.19-.23,1.52,1.52,0,0,0-.32-.21L81.75,31l-.44-.18L81,30.64l-.34-.15-.35-.17-.31-.2a2,2,0,0,1-.3-.24l-.24-.27a1.36,1.36,0,0,1-.2-.32,2.22,2.22,0,0,1-.12-.37,1.92,1.92,0,0,1,0-.43,1.89,1.89,0,0,1,.54-1.34A2.53,2.53,0,0,1,81,26.41v-1a.18.18,0,0,1,.18-.18H82a.17.17,0,0,1,.18.18v1a3.08,3.08,0,0,1,.61.13,3.55,3.55,0,0,1,.48.19,2.67,2.67,0,0,1,.35.21l.22.16.08.08a.16.16,0,0,1,0,.21l-.45.81a.15.15,0,0,1-.13.09.18.18,0,0,1-.15,0l-.08-.07L82.88,28l-.32-.18a2.47,2.47,0,0,0-.41-.14,1.85,1.85,0,0,0-.47-.06,1.44,1.44,0,0,0-.86.24.74.74,0,0,0-.29.88.62.62,0,0,0,.16.23l.22.18a2,2,0,0,0,.31.17l.34.15.39.15.45.17.42.19a3.35,3.35,0,0,1,.42.24,3.53,3.53,0,0,1,.34.28,1.44,1.44,0,0,1,.29.35,2,2,0,0,1,.17.42A1.83,1.83,0,0,1,84.11,31.8Z"/><path d="M56.11,38.87a1.35,1.35,0,1,1,1-.4A1.31,1.31,0,0,1,56.11,38.87Zm4.58-2.66-.79-.28.34-.74L61,33.55a3.89,3.89,0,0,0-1-1l-1.64.74-.74.4-.28-.79-.62-1.7a4.1,4.1,0,0,0-1.36,0l-.62,1.7-.28.79-.74-.34-1.64-.79a3.89,3.89,0,0,0-1,1l.74,1.64.4.74-.79.28-1.7.62a4.1,4.1,0,0,0,0,1.36l1.7.62.79.28-.34.74-.79,1.64a3.89,3.89,0,0,0,1,1l1.64-.79.74-.34.28.79.62,1.7a4.1,4.1,0,0,0,1.36,0l.62-1.7.28-.79.74.34,1.64.79a3.89,3.89,0,0,0,1-1l-.74-1.64-.4-.74.79-.28,1.7-.62a4.1,4.1,0,0,0,0-1.36ZM41.9,25.86a2.71,2.71,0,1,0,.79-1.92A2.62,2.62,0,0,0,41.9,25.86Zm4.9-5A5.43,5.43,0,0,1,49.6,28a5.26,5.26,0,0,1-3,2.89,5.16,5.16,0,0,1-4.13-.08,5.36,5.36,0,0,1-2.91-3,5.09,5.09,0,0,1,.06-4.13,5.35,5.35,0,0,1,3-2.91A5.15,5.15,0,0,1,46.8,20.88ZM35.05,31l3.11-.11a7.09,7.09,0,0,0,1.3,1.3l-.23,3.17,1.08.51q.51.23,1.13.45L43.6,34a7.27,7.27,0,0,0,1.81,0l2.09,2.38a8.52,8.52,0,0,0,2.21-.91l-.11-3.11A7.09,7.09,0,0,0,50.9,31l3.17.23q.28-.57.51-1.08T55,29l-2.32-2.15a7.27,7.27,0,0,0,0-1.81L55.09,23a8.52,8.52,0,0,0-.91-2.21l-3.11.11a7.09,7.09,0,0,0-1.3-1.3L50,16.41l-1.08-.51a7.92,7.92,0,0,0-1.13-.4l-2.15,2.26a7.27,7.27,0,0,0-1.81,0l-2.09-2.38a12.35,12.35,0,0,0-2.21.91l.11,3.11a7.09,7.09,0,0,0-1.3,1.3l-3.17-.23q-.28.57-.51,1.08a7.92,7.92,0,0,0-.4,1.13l2.26,2.15a7.27,7.27,0,0,0,0,1.81l-2.38,2.09A12.35,12.35,0,0,0,35.05,31Z"/><path d="M94.35,25.26l-.67-.67,0-17.51A1.77,1.77,0,0,0,91.93,5.3h-.55V7h.55s0,0,0,.06l0,15.78-.6-.6,0-17.51A1.77,1.77,0,0,0,89.6,3h-.55V2.43A1.77,1.77,0,0,0,87.28.64L57.86.6a1.78,1.78,0,0,0-1.78,1.78v6h0a22.64,22.64,0,0,0-16.47.36h0L31.51.65,30.86,0H10A5.72,5.72,0,0,0,4.46,4.46,5.72,5.72,0,0,0,0,10V54.76a5.72,5.72,0,0,0,5.71,5.71H33.33A5.72,5.72,0,0,0,38.9,56a5.72,5.72,0,0,0,4.31-4.33A22.58,22.58,0,0,0,56,50.92v6.6a1.77,1.77,0,0,0,1.78,1.78h.55v.55a1.77,1.77,0,0,0,1.78,1.78h.55v.55A1.77,1.77,0,0,0,62.43,64h8.74l20.67,0a1.77,1.77,0,0,0,1.78-1.78v-17h.06a.8.8,0,0,0,.8-.8l.08-18.56A.8.8,0,0,0,94.35,25.26ZM89,4.69h.55s0,0,0,.06l0,15.78-.46-.46A.79.79,0,0,0,89,20ZM57.79,5V2.38a.07.07,0,0,1,.06-.06l29.41,0s0,0,0,.06l0,17.42H85.36V10.69a.86.86,0,0,0-.86-.86,4.66,4.66,0,0,1-4.65-4.66A.86.86,0,0,0,79,4.3l-12.87,0a.86.86,0,0,0-.86.86,4.66,4.66,0,0,1-4.66,4.65.85.85,0,0,0-.71.39,22.62,22.62,0,0,0-2.12-1.12ZM71.36,30.58l.44.19.44.18.57.23.47.23a2,2,0,0,1,.42.27,1.34,1.34,0,0,1,.24.3.73.73,0,0,1,.11.38,1,1,0,0,1-.44.87,1.74,1.74,0,0,1-1,.31,2.5,2.5,0,0,1-.53-.06,3.57,3.57,0,0,1-1.36-.6,22.66,22.66,0,0,0,.22-2.53ZM68.72,19.84c-.3-.63-.64-1.24-1-1.84h0a12.72,12.72,0,0,1,4.82-1,12.9,12.9,0,0,1,8,2.79Zm3.83-4.52a14.45,14.45,0,0,0-5.79,1.21h0a22.84,22.84,0,0,0-5-5.13A6.38,6.38,0,0,0,66.94,6L78.2,6a6.38,6.38,0,0,0,5.45,5.46v8.35h-.57A14.65,14.65,0,0,0,72.55,15.32ZM30.92,3.23l6.53,6.51h0a22.75,22.75,0,0,0-3.89,2.69H33.3a2.38,2.38,0,0,1-2.38-2.38Zm2.4,55H5.71a3.47,3.47,0,0,1-3.47-3.47V10A3.47,3.47,0,0,1,4.31,6.85V50.44A5.72,5.72,0,0,0,10,56.16H36.5A3.47,3.47,0,0,1,33.33,58.23Zm7.72-7.15a3.47,3.47,0,0,1-3.41,2.84H10a3.47,3.47,0,0,1-3.47-3.47V5.71A3.47,3.47,0,0,1,10,2.24H28.68v7.81a4.62,4.62,0,0,0,2.91,4.28,22.33,22.33,0,0,0-5.75,18.17c0-.22-.07-.44-.09-.67H12.11a.8.8,0,0,0,0,1.6H26a22.42,22.42,0,0,0,1.89,5.92c-.05-.11-.12-.22-.17-.33H12.11a.8.8,0,0,0,0,1.6h16.4l-.13-.26a22.77,22.77,0,0,0,4.76,6l-.23-.19H12.11a.8.8,0,0,0,0,1.6H34.84l-.19-.16a22.63,22.63,0,0,0,6.4,3.41Zm7.25-.73A20.73,20.73,0,1,1,69,29.62,20.73,20.73,0,0,1,48.3,50.35Zm24.21-5.73a14.66,14.66,0,0,0,10.58-4.54h.52v8.41a6.38,6.38,0,0,0-5.46,5.45l-11.26,0a6.39,6.39,0,0,0-5.45-5.46v-.39a22.84,22.84,0,0,0,5-4.84h0A14.45,14.45,0,0,0,72.51,44.62Zm0-1.72a12.73,12.73,0,0,1-5.13-1.1h0q.54-.84,1-1.72H80.54A12.9,12.9,0,0,1,72.51,42.9ZM57.78,57.59a.07.07,0,0,1-.06-.06V50.21q1-.47,2-1v.07a.86.86,0,0,0,.86.86,4.66,4.66,0,0,1,4.65,4.66.86.86,0,0,0,.86.86l12.87,0a.86.86,0,0,0,.86-.86,4.66,4.66,0,0,1,4.66-4.64.86.86,0,0,0,.86-.86V40.08h1.94l0,17.49s0,.06,0,.06l-11.55,0H57.78Zm2.33,2.33a.07.07,0,0,1-.06-.06V59.3h6.47l20.67,0A1.77,1.77,0,0,0,89,57.57V40.8l.6.6,0,18.49s0,.06,0,.06L78,59.94H60.11ZM91.9,62.22s0,.06,0,.06l-11.55,0H62.43a.07.07,0,0,1-.06-.06v-.55h6.47l20.67,0A1.77,1.77,0,0,0,91.3,59.9V43.13l.6.6Zm1-19.76-3.75-3.75a.8.8,0,0,0-.57-.23H69.14a22.49,22.49,0,0,0,1.23-3.81,5.17,5.17,0,0,0,.59.25,4.52,4.52,0,0,0,.91.22v1.25a.23.23,0,0,0,.23.23h1a.22.22,0,0,0,.23-.23V35.14a3.08,3.08,0,0,0,1.85-1,2.73,2.73,0,0,0,.71-1.89,2.37,2.37,0,0,0-.09-.67,2.59,2.59,0,0,0-.23-.55,1.86,1.86,0,0,0-.38-.46,4.56,4.56,0,0,0-.44-.36,4.33,4.33,0,0,0-.54-.3l-.54-.25-.58-.23-.5-.2-.43-.19a2.53,2.53,0,0,1-.4-.22l-.28-.24a.81.81,0,0,1-.21-.3,1,1,0,0,1,.37-1.14,1.86,1.86,0,0,1,1.11-.31,2.39,2.39,0,0,1,.61.08,3.2,3.2,0,0,1,.53.19,3.7,3.7,0,0,1,.42.23l.28.19.1.09a.23.23,0,0,0,.19.05.2.2,0,0,0,.16-.11l.58-1a.21.21,0,0,0,0-.27l-.11-.1-.28-.21a3.45,3.45,0,0,0-.46-.27,4.6,4.6,0,0,0-.62-.24,4,4,0,0,0-.79-.16V24a.22.22,0,0,0-.23-.23h-1a.23.23,0,0,0-.23.23V25.3a3.48,3.48,0,0,0-1.27.51,22.59,22.59,0,0,0-1.2-4.36H88.27L93,26.15Z"/></g></g></svg>
