<svg xmlns="http://www.w3.org/2000/svg" preserveAspectRatio="xMidYMid" height="64" viewBox="0 0 63.57 64"><defs><style>.cls-1{fill:#fff;}</style></defs><title>tour-transparent</title><g id="Layer_2" data-name="Layer 2"><g id="Layer_1-2" data-name="Layer 1"><path d="M38.38,0A25.18,25.18,0,0,0,19.61,42l-.61.61a5,5,0,0,0-5.64,1L1.46,55.47a5,5,0,0,0,7.07,7.07l11.9-11.9a5,5,0,0,0,1-5.64l.64-.64A25.18,25.18,0,1,0,38.38,0ZM18.6,48.82,6.71,60.71a2.42,2.42,0,0,1-3.42,0h0a2.42,2.42,0,0,1,0-3.42l11.9-11.9a2.42,2.42,0,1,1,3.42,3.42Zm19.78-1A22.6,22.6,0,1,1,61,25.19,22.63,22.63,0,0,1,38.38,47.79Z"/><path d="M38.38,5A20.23,20.23,0,1,1,18.15,25.19,20.25,20.25,0,0,1,38.38,5m0-1.27a21.5,21.5,0,1,0,21.5,21.5,21.5,21.5,0,0,0-21.5-21.5Z"/><path d="M35.87,25.55a2,2,0,0,1-.52,1.37,2.23,2.23,0,0,1-1.34.71v.91a.16.16,0,0,1-.17.17h-.7a.17.17,0,0,1-.17-.17v-.91a3.27,3.27,0,0,1-.66-.16,3.18,3.18,0,0,1-.91-.48l-.24-.19-.09-.09a.16.16,0,0,1,0-.21l.53-.7a.16.16,0,0,1,.12-.06.13.13,0,0,1,.12,0h0a2.71,2.71,0,0,0,1.26.65,1.81,1.81,0,0,0,.38,0,1.26,1.26,0,0,0,.74-.22.73.73,0,0,0,.32-.63.53.53,0,0,0-.08-.27,1,1,0,0,0-.17-.22,1.42,1.42,0,0,0-.3-.19l-.34-.17-.41-.17-.32-.13-.32-.14-.32-.16L32,24a1.83,1.83,0,0,1-.28-.22l-.23-.25a1.27,1.27,0,0,1-.18-.3,2.08,2.08,0,0,1-.11-.34,1.8,1.8,0,0,1,0-.4,1.77,1.77,0,0,1,.51-1.25A2.37,2.37,0,0,1,33,20.51v-.93a.17.17,0,0,1,.17-.17h.7a.16.16,0,0,1,.17.17v.91a2.88,2.88,0,0,1,.57.12,3.32,3.32,0,0,1,.45.17,2.5,2.5,0,0,1,.33.19l.2.15.08.07a.15.15,0,0,1,0,.2l-.42.76a.14.14,0,0,1-.12.08.17.17,0,0,1-.14,0l-.08-.06-.2-.14-.3-.17A2.32,2.32,0,0,0,34,21.7a1.73,1.73,0,0,0-.44-.06,1.35,1.35,0,0,0-.8.22.7.7,0,0,0-.27.82.58.58,0,0,0,.15.22l.2.17a1.83,1.83,0,0,0,.29.16l.31.14.36.14.42.16.39.18a3.13,3.13,0,0,1,.39.22,3.31,3.31,0,0,1,.32.26,1.34,1.34,0,0,1,.27.33,1.88,1.88,0,0,1,.16.4A1.71,1.71,0,0,1,35.87,25.55Z"/><circle class="cls-1" cx="26.37" cy="32.37" r="1.39"/><path d="M44,16.18H22.91a1.55,1.55,0,0,0-1.55,1.55V30.38a1.55,1.55,0,0,0,1.55,1.55h.56a2.93,2.93,0,1,0,5.79,0H30a2.93,2.93,0,1,0,5.79,0H44a1.55,1.55,0,0,0,1.55-1.55V17.73A1.55,1.55,0,0,0,44,16.18ZM26.37,33.76a1.39,1.39,0,1,1,1.39-1.39A1.39,1.39,0,0,1,26.37,33.76Zm6.53,0a1.39,1.39,0,1,1,1.39-1.39A1.39,1.39,0,0,1,32.9,33.76ZM44,30.38H35a2.92,2.92,0,0,0-4.29,0H28.52a2.92,2.92,0,0,0-4.29,0H22.91V17.73H44Z"/><circle class="cls-1" cx="32.9" cy="32.37" r="1.39"/><path d="M54.87,21.95l-2-1.79a1.55,1.55,0,0,0-1-.39H47.74a1.55,1.55,0,0,0-1.55,1.55v9.06a1.55,1.55,0,0,0,1.16,1.5,2.94,2.94,0,1,0,5.79.05h.71a1.55,1.55,0,0,0,1.55-1.55V23.11A1.55,1.55,0,0,0,54.87,21.95ZM50.24,33.76a1.39,1.39,0,0,1-1.39-1.39,1.24,1.24,0,0,1,0-.24,1.38,1.38,0,0,1,2.67-.21h0a1.37,1.37,0,0,1,.06.21,1.24,1.24,0,0,1,0,.24A1.39,1.39,0,0,1,50.24,33.76Zm3.61-3.38H52.38a2.92,2.92,0,0,0-4.29,0h-.35v-3.7h6.11Zm0-5.25H47.74V21.31h4.07l2,1.79Z"/></g></g></svg>
