<svg xmlns="http://www.w3.org/2000/svg" preserveAspectRatio="xMidYMid" height="64" viewBox="0 0 96.4 64"><title>tour-nextdaypay</title><g id="Layer_2" data-name="Layer 2"><g id="Layer_1-2" data-name="Layer 1"><path d="M73.22,47.28a.87.87,0,0,0,.87.87,1,1,0,1,1-1,1,.87.87,0,1,0-1.74,0,2.73,2.73,0,1,0,2.73-2.72.87.87,0,0,0-.87.87"/><path d="M75.13,10.17a1,1,0,1,1-2,0,.87.87,0,0,0-1.74,0,2.73,2.73,0,1,0,2.73-2.72.87.87,0,0,0,0,1.74,1,1,0,0,1,1,1"/><path d="M77.48,32a2.75,2.75,0,0,1-.72,1.91,3.11,3.11,0,0,1-1.87,1v1.27a.22.22,0,0,1-.23.23h-1a.23.23,0,0,1-.23-.23V34.87a4.56,4.56,0,0,1-.92-.22A4.44,4.44,0,0,1,71.26,34l-.34-.27-.13-.13a.22.22,0,0,1,0-.3l.75-1a.23.23,0,0,1,.17-.09.18.18,0,0,1,.17.07h0a3.78,3.78,0,0,0,1.76.9,2.53,2.53,0,0,0,.54.06,1.75,1.75,0,0,0,1-.31,1,1,0,0,0,.44-.88.73.73,0,0,0-.11-.38,1.36,1.36,0,0,0-.24-.3,2,2,0,0,0-.42-.27l-.48-.23-.58-.24-.44-.18-.44-.19L72.48,30l-.41-.26a2.55,2.55,0,0,1-.39-.31,4.5,4.5,0,0,1-.31-.35,1.77,1.77,0,0,1-.26-.42,2.9,2.9,0,0,1-.15-.48,2.51,2.51,0,0,1-.06-.56,2.47,2.47,0,0,1,.71-1.75,3.31,3.31,0,0,1,1.84-1v-1.3a.23.23,0,0,1,.23-.23h1a.22.22,0,0,1,.23.23V24.9a4,4,0,0,1,.8.17,4.64,4.64,0,0,1,.63.24,3.48,3.48,0,0,1,.46.27l.28.21.11.1a.21.21,0,0,1,0,.27l-.59,1.06a.2.2,0,0,1-.17.12.23.23,0,0,1-.2-.05l-.1-.09L75.87,27a3.73,3.73,0,0,0-.42-.23,3.23,3.23,0,0,0-.54-.19,2.41,2.41,0,0,0-.62-.08,1.88,1.88,0,0,0-1.12.31A1,1,0,0,0,72.8,28a.81.81,0,0,0,.21.3l.29.24a2.55,2.55,0,0,0,.41.22l.44.2.51.2.59.23.55.25a4.37,4.37,0,0,1,.55.31,4.61,4.61,0,0,1,.45.36,1.87,1.87,0,0,1,.38.46,2.62,2.62,0,0,1,.23.55A2.39,2.39,0,0,1,77.48,32Z"/><path d="M85.8,31.5A2.13,2.13,0,0,1,85.25,33a2.4,2.4,0,0,1-1.44.76v1a.17.17,0,0,1-.18.18h-.75a.18.18,0,0,1-.18-.18v-1a3.52,3.52,0,0,1-.71-.17A3.43,3.43,0,0,1,81,33l-.26-.21-.1-.1a.17.17,0,0,1,0-.23l.58-.75a.17.17,0,0,1,.13-.07.14.14,0,0,1,.13.05h0a2.92,2.92,0,0,0,1.36.7,2,2,0,0,0,.41,0,1.36,1.36,0,0,0,.8-.24.78.78,0,0,0,.34-.68.57.57,0,0,0-.08-.3,1,1,0,0,0-.19-.23,1.53,1.53,0,0,0-.33-.21l-.37-.18L83,30.46l-.34-.14-.34-.15L81.94,30l-.32-.2a2,2,0,0,1-.3-.24l-.24-.27a1.37,1.37,0,0,1-.2-.32,2.24,2.24,0,0,1-.12-.37,1.94,1.94,0,0,1,0-.44,1.91,1.91,0,0,1,.55-1.35,2.56,2.56,0,0,1,1.43-.75v-1a.18.18,0,0,1,.18-.18h.75a.17.17,0,0,1,.18.18v1a3.11,3.11,0,0,1,.62.13,3.58,3.58,0,0,1,.49.19,2.69,2.69,0,0,1,.35.21l.22.16.08.08a.16.16,0,0,1,0,.21l-.45.82a.15.15,0,0,1-.13.09.18.18,0,0,1-.15,0l-.08-.07-.22-.15-.33-.18a2.5,2.5,0,0,0-.42-.15,1.86,1.86,0,0,0-.48-.06,1.45,1.45,0,0,0-.87.24.75.75,0,0,0-.29.89.63.63,0,0,0,.16.23l.22.18a2,2,0,0,0,.31.17l.34.15.39.15.45.18.42.2a3.38,3.38,0,0,1,.42.24,3.56,3.56,0,0,1,.35.28,1.45,1.45,0,0,1,.3.35,2,2,0,0,1,.18.43A1.85,1.85,0,0,1,85.8,31.5Z"/><path d="M67.63,31.5A2.13,2.13,0,0,1,67.07,33a2.4,2.4,0,0,1-1.44.76v1a.17.17,0,0,1-.18.18h-.75a.18.18,0,0,1-.18-.18v-1a3.52,3.52,0,0,1-.71-.17,3.43,3.43,0,0,1-1-.52l-.26-.21-.1-.1a.17.17,0,0,1,0-.23l.58-.75a.17.17,0,0,1,.13-.07.14.14,0,0,1,.13.05h0a2.92,2.92,0,0,0,1.36.7,2,2,0,0,0,.41,0,1.36,1.36,0,0,0,.8-.24.78.78,0,0,0,.34-.68.57.57,0,0,0-.08-.3,1,1,0,0,0-.19-.23,1.53,1.53,0,0,0-.33-.21l-.37-.18-.45-.18-.34-.14-.34-.15L63.76,30l-.32-.2a2,2,0,0,1-.3-.24l-.24-.27a1.37,1.37,0,0,1-.2-.32,2.24,2.24,0,0,1-.12-.37,1.94,1.94,0,0,1,0-.44,1.91,1.91,0,0,1,.55-1.35,2.56,2.56,0,0,1,1.43-.75v-1a.18.18,0,0,1,.18-.18h.75a.17.17,0,0,1,.18.18v1a3.11,3.11,0,0,1,.62.13,3.58,3.58,0,0,1,.49.19,2.69,2.69,0,0,1,.35.21l.22.16.08.08a.16.16,0,0,1,0,.21l-.45.82a.15.15,0,0,1-.13.09.18.18,0,0,1-.15,0l-.08-.07-.22-.15-.33-.18a2.5,2.5,0,0,0-.42-.15,1.86,1.86,0,0,0-.48-.06,1.45,1.45,0,0,0-.87.24.75.75,0,0,0-.29.89.63.63,0,0,0,.16.23l.22.18a2,2,0,0,0,.31.17l.34.15.39.15.45.18.42.2a3.38,3.38,0,0,1,.42.24,3.56,3.56,0,0,1,.35.28,1.45,1.45,0,0,1,.3.35,2,2,0,0,1,.18.43A1.85,1.85,0,0,1,67.63,31.5Z"/><rect x="14.92" y="7" width="19.6" height="2.21"/><path d="M12.9,8.39c0,1.4,0,2.8,0,4.19-.07,1.76-1.17,2.93-2.68,2.82a2.51,2.51,0,0,1-2.54-2.75c0-2.79,0-5.59,0-8.39a2.46,2.46,0,0,1,2.57-2.71A2.47,2.47,0,0,1,12.88,4.2c.06,1.4,0,2.79,0,4.19"/><path d="M36.55,8.29c0-1.4,0-2.79,0-4.19a2.58,2.58,0,0,1,5.17.06q.11,4.28,0,8.57a2.43,2.43,0,0,1-2.61,2.64,2.46,2.46,0,0,1-2.56-2.71c-.05-1.46,0-2.92,0-4.39"/><path d="M38.6,51.16c-1,0-1.91,0-2.87,0a1.83,1.83,0,0,1-1.85-1.79,1.8,1.8,0,0,1,1.72-1.92q3-.07,6,0a1.81,1.81,0,0,1,1.71,1.94,1.86,1.86,0,0,1-1.87,1.78H38.6"/><path d="M25,25.19c.94,0,1.87,0,2.81,0A1.88,1.88,0,0,1,29.68,27a1.86,1.86,0,0,1-1.8,1.93Q24.94,29,22,29a1.88,1.88,0,0,1,.08-3.76c1,0,1.91,0,2.87,0h0"/><path d="M24.91,40.06c-.9,0-1.79,0-2.69,0a1.87,1.87,0,0,1-2-1.83,1.81,1.81,0,0,1,1.86-1.91c2-.05,3.91,0,5.86,0a1.79,1.79,0,0,1,1.75,1.83A1.84,1.84,0,0,1,27.9,40c-1,0-2,0-3,0h0"/><path d="M24.93,51.16c-1,0-1.91,0-2.87,0a1.83,1.83,0,0,1-1.85-1.79,1.8,1.8,0,0,1,1.72-1.92q3-.07,6,0a1.81,1.81,0,0,1,1.71,1.94,1.86,1.86,0,0,1-1.87,1.78H24.93"/><path d="M11.29,25.19c.94,0,1.87,0,2.81,0A1.88,1.88,0,0,1,16,27a1.86,1.86,0,0,1-1.8,1.93q-2.93.08-5.86,0a1.88,1.88,0,0,1,.08-3.76c1,0,1.91,0,2.87,0h0"/><path d="M11.23,40.06c-.9,0-1.79,0-2.69,0a1.87,1.87,0,0,1-2-1.83A1.81,1.81,0,0,1,8.4,36.32c2-.05,3.91,0,5.86,0A1.79,1.79,0,0,1,16,38.17,1.84,1.84,0,0,1,14.23,40c-1,0-2,0-3,0h0"/><path d="M11.26,51.16c-1,0-1.91,0-2.87,0a1.83,1.83,0,0,1-1.85-1.79,1.8,1.8,0,0,1,1.72-1.92q3-.07,6,0A1.81,1.81,0,0,1,16,49.38a1.86,1.86,0,0,1-1.87,1.78H11.26"/><path d="M96.16,24.87l-3-3,0-15.35h.56s0,0,0,.07l0,15.89,1.75,1.75,0-17.63a1.79,1.79,0,0,0-1.79-1.8h-.56V4.19a1.79,1.79,0,0,0-1.79-1.8h-.56V1.84A1.79,1.79,0,0,0,89,0L59.31,0a1.79,1.79,0,0,0-1.8,1.79V9.25l0,10.15h-.64a.84.84,0,0,0-.84.84v4.53l-4-4a2.34,2.34,0,0,0-2.11-.63V12.09A5.1,5.1,0,0,0,44.79,7h-1V9.21h1a2.88,2.88,0,0,1,2.88,2.88v6.5H2.21v-6.5A2.88,2.88,0,0,1,5.09,9.21h.54V7H5.09A5.1,5.1,0,0,0,0,12.09v40.2a5.1,5.1,0,0,0,5.09,5.09h39.7a5.1,5.1,0,0,0,5.09-5.09v-11A2.34,2.34,0,0,0,52,40.67l4-4V39a.84.84,0,0,0,.84.84h.61l0,17.58a1.79,1.79,0,0,0,1.79,1.8H68l20.87,0a1.79,1.79,0,0,0,1.8-1.79V40.62l.6.6,0,18.62s0,.07,0,.07l-11.65,0h-18a.07.07,0,0,1-.07-.07v-.55H59.78v.55a1.79,1.79,0,0,0,1.79,1.8h.56v.55A1.79,1.79,0,0,0,63.92,64h8.82l20.87,0a1.79,1.79,0,0,0,1.8-1.79V45h.06a.84.84,0,0,0,.84-.83l.08-18.74A.84.84,0,0,0,96.16,24.87ZM90.79,4.13h.56s0,0,0,.07l0,15.89-.44-.44a.82.82,0,0,0-.16-.11ZM59.21,17.85l0-13.41V1.8a.07.07,0,0,1,.07-.07L89,1.78s0,0,0,.07l0,17.55h-2V10.19a.87.87,0,0,0-.87-.87,4.7,4.7,0,0,1-4.69-4.7.87.87,0,0,0-.87-.87l-13,0a.87.87,0,0,0-.87.87,4.7,4.7,0,0,1-4.7,4.69.87.87,0,0,0-.87.87v9.25h-2Zm14.92-3a14.8,14.8,0,0,0-10.63,4.53h-.57V11a6.45,6.45,0,0,0,5.52-5.5l11.37,0A6.44,6.44,0,0,0,85.33,11v8.4h-.6A14.79,14.79,0,0,0,74.14,14.86Zm8,4.53H66.08a13,13,0,0,1,16.06,0ZM47.67,52.29a2.88,2.88,0,0,1-2.88,2.88H5.09a2.88,2.88,0,0,1-2.88-2.88V20.8H47.67v4.85a14.21,14.21,0,0,0-4.33,1.55c0-.06,0-.12,0-.18a1.88,1.88,0,0,0-1.91-1.83c-.94,0-1.87,0-2.81,0h0c-1,0-1.91,0-2.87,0A1.88,1.88,0,0,0,35.68,29c1.72,0,3.44,0,5.16,0l-.07.06a14.07,14.07,0,0,0-3.89,5.61H35.7a3.49,3.49,0,0,0-3.49,3.62,3.54,3.54,0,0,0,3.67,3.47h2.82c1,0,2.38,0,3,0A3.53,3.53,0,0,0,45,38.15a3.6,3.6,0,0,0-.35-1.52,18.79,18.79,0,0,1,3-.45ZM37.36,38.93a2.34,2.34,0,0,0,2.73-.17,10.32,10.32,0,0,1,3-1.64,1.92,1.92,0,0,1,.31,1A1.84,1.84,0,0,1,41.57,40c-.5,0-1.69,0-2.88,0h-2.8a1.87,1.87,0,0,1-2-1.83,1.81,1.81,0,0,1,1.86-1.91h.61l0,.09A2.34,2.34,0,0,0,37.36,38.93Zm13,.07V33.73l-1.52,0q-6.5.14-10.22,3.18a11.69,11.69,0,0,1,3.72-6.18,11.85,11.85,0,0,1,6.68-3q.76-.07,1.34-.07V22.46l8.38,8.27ZM89,57.5s0,.07,0,.07l-11.65,0h-18a.07.07,0,0,1-.07-.07l0-17.58h2v9.24A.87.87,0,0,0,62,50a4.7,4.7,0,0,1,4.69,4.7.87.87,0,0,0,.87.87l13,0a.87.87,0,0,0,.87-.87A4.7,4.7,0,0,1,86.15,50a.87.87,0,0,0,.87-.87V39.88h2ZM74.09,44.44a14.79,14.79,0,0,0,10.65-4.56h.55v8.46a6.44,6.44,0,0,0-5.52,5.5l-11.37,0a6.45,6.45,0,0,0-5.5-5.52V39.88h.58A14.8,14.8,0,0,0,74.09,44.44Zm-8-4.56H82.18a12.95,12.95,0,0,1-16.13,0ZM93.66,62.2s0,.07,0,.07L82,62.25h-18a.07.07,0,0,1-.07-.07v-.55h6.53l20.87,0a1.79,1.79,0,0,0,1.8-1.79V43l.6.6Zm1-20-3.74-3.74a.84.84,0,0,0-.59-.25H57.68V35.06l2.69-2.66a2.34,2.34,0,0,0,0-3.34l-2.69-2.66V21.07H90l4.74,4.74Z"/></g></g></svg>
