<svg xmlns="http://www.w3.org/2000/svg" preserveAspectRatio="xMidYMid" height="64" viewBox="0 0 57.19 74"><title>tour-schedule</title><g id="Layer_2" data-name="Layer 2"><g id="Layer_1-2" data-name="Layer 1"><rect x="17.1" y="6.24" width="22.47" height="2.54"/><path d="M51.35,6.24H50.22V8.77h1.13a3.3,3.3,0,0,1,3.3,3.3v7.45H2.54V12.07a3.3,3.3,0,0,1,3.3-3.3h.62V6.24H5.84A5.84,5.84,0,0,0,0,12.07V58.16A5.84,5.84,0,0,0,5.84,64H51.35a5.84,5.84,0,0,0,5.84-5.84V12.07A5.84,5.84,0,0,0,51.35,6.24Zm0,55.23H5.84a3.3,3.3,0,0,1-3.3-3.3V22.06H54.65V58.16A3.3,3.3,0,0,1,51.35,61.46Z"/><path d="M14.78,7.83c0,1.6.05,3.21,0,4.81-.08,2-1.34,3.36-3.08,3.23a2.88,2.88,0,0,1-2.91-3.15c0-3.2,0-6.41,0-9.61A2.82,2.82,0,0,1,11.73,0a2.83,2.83,0,0,1,3,3c.07,1.6,0,3.2,0,4.81"/><path d="M41.9,7.72c0-1.6-.06-3.2,0-4.8A3,3,0,0,1,47.85,3q.12,4.91,0,9.83a2.78,2.78,0,0,1-3,3c-1.92,0-2.87-1.25-2.94-3.1-.06-1.67,0-3.35,0-5"/><path d="M44.29,27.09c1.07,0,2.15,0,3.22,0a2.16,2.16,0,0,1,2.19,2.09,2.13,2.13,0,0,1-2.07,2.22q-3.36.09-6.72,0A2.16,2.16,0,0,1,41,27.1c1.1,0,2.19,0,3.29,0h0"/><path d="M44.25,56.87c-1.1,0-2.19,0-3.29,0a2.1,2.1,0,0,1-2.12-2.06,2.06,2.06,0,0,1,2-2.21q3.46-.08,6.93,0a2.08,2.08,0,0,1,2,2.22,2.13,2.13,0,0,1-2.15,2H44.25"/><path d="M28.62,27.09c1.07,0,2.15,0,3.22,0A2.16,2.16,0,0,1,34,29.19,2.13,2.13,0,0,1,32,31.41q-3.36.09-6.72,0a2.16,2.16,0,0,1,.09-4.31c1.1,0,2.19,0,3.29,0h0"/><path d="M28.55,44.15c-1,0-2.05,0-3.08,0A2.15,2.15,0,0,1,23.16,42a2.07,2.07,0,0,1,2.14-2.19c2.24-.06,4.48,0,6.71,0A2.05,2.05,0,0,1,34,42a2.11,2.11,0,0,1-2,2.15c-1.14.05-2.29,0-3.43,0h0"/><path d="M28.58,56.87c-1.1,0-2.19,0-3.29,0a2.1,2.1,0,0,1-2.13-2.06,2.06,2.06,0,0,1,2-2.21q3.46-.08,6.93,0a2.08,2.08,0,0,1,2,2.22,2.13,2.13,0,0,1-2.15,2H28.58"/><path d="M12.94,27.09c1.07,0,2.15,0,3.22,0a2.16,2.16,0,0,1,2.19,2.09,2.13,2.13,0,0,1-2.07,2.22q-3.36.09-6.72,0a2.16,2.16,0,0,1,.09-4.31c1.1,0,2.19,0,3.29,0h0"/><path d="M12.88,44.15c-1,0-2.05,0-3.08,0A2.15,2.15,0,0,1,7.49,42a2.07,2.07,0,0,1,2.14-2.19c2.24-.06,4.48,0,6.71,0a2.05,2.05,0,0,1,2,2.1,2.11,2.11,0,0,1-2,2.15c-1.14.05-2.29,0-3.43,0h0"/><path d="M12.91,56.87c-1.1,0-2.19,0-3.29,0a2.1,2.1,0,0,1-2.13-2.06,2.06,2.06,0,0,1,2-2.21q3.46-.08,6.93,0a2.08,2.08,0,0,1,2,2.22,2.13,2.13,0,0,1-2.15,2H12.91"/><path d="M46.4,43.38a1.83,1.83,0,0,1-.48,1.27,2.07,2.07,0,0,1-1.25.66v.84a.15.15,0,0,1-.15.15h-.65a.16.16,0,0,1-.15-.15V45.3a3,3,0,0,1-.61-.15,3,3,0,0,1-.85-.45L42,44.53l-.08-.09a.15.15,0,0,1,0-.2l.5-.65a.15.15,0,0,1,.11-.06.12.12,0,0,1,.12,0h0a2.52,2.52,0,0,0,1.17.6,1.68,1.68,0,0,0,.36,0,1.17,1.17,0,0,0,.69-.21.67.67,0,0,0,.3-.59.49.49,0,0,0-.07-.26.9.9,0,0,0-.16-.2,1.32,1.32,0,0,0-.28-.18l-.32-.15L44,42.48l-.3-.12-.3-.13-.3-.15-.27-.17a1.7,1.7,0,0,1-.26-.2l-.21-.24a1.18,1.18,0,0,1-.17-.28,1.93,1.93,0,0,1-.1-.32,1.67,1.67,0,0,1,0-.38,1.65,1.65,0,0,1,.47-1.17,2.2,2.2,0,0,1,1.23-.65v-.87a.16.16,0,0,1,.15-.15h.65a.15.15,0,0,1,.15.15v.85a2.68,2.68,0,0,1,.53.11,3.09,3.09,0,0,1,.42.16,2.32,2.32,0,0,1,.31.18l.19.14.07.07a.14.14,0,0,1,0,.18l-.39.7a.13.13,0,0,1-.11.08.15.15,0,0,1-.13,0l-.07-.06-.19-.13L45,39.92a2.15,2.15,0,0,0-.36-.13,1.61,1.61,0,0,0-.41-.06,1.25,1.25,0,0,0-.75.21.65.65,0,0,0-.25.77.54.54,0,0,0,.14.2l.19.16a1.7,1.7,0,0,0,.27.15l.29.13.34.13.39.15.37.17a2.91,2.91,0,0,1,.36.2,3.07,3.07,0,0,1,.3.24,1.25,1.25,0,0,1,.26.31,1.74,1.74,0,0,1,.15.37A1.59,1.59,0,0,1,46.4,43.38Z"/><path d="M44.61,35.21c-2.83-1.39-5.56-.7-6.78,2.34a10.57,10.57,0,0,0,.67,9.14c2,3.06,6.69,4.41,9.72,2s3.61-7,2.62-10.41c-1.43-4.95-6.24-6.68-11-5.86-.87.15-.5,1.48.37,1.33,4.65-.8,9,1.42,9.57,6.43.4,3.61-1.24,8.66-5.66,8.35-4.13-.29-5.83-4.17-5.61-7.82a6.69,6.69,0,0,1,1.34-4c1.11-1.24,2.66-1,4-.31.79.39,1.49-.8.7-1.19Z"/></g></g></svg>
