<svg xmlns="http://www.w3.org/2000/svg" height="92" viewBox="0 -10 64 80"><title>tour-payment</title><g id="Layer_2" data-name="Layer 2"><g id="Layer_1-2" data-name="Layer 1"><path d="M41.37,37.81a7.64,7.64,0,0,1-2,5.29,8.63,8.63,0,0,1-5.19,2.74v3.52a.62.62,0,0,1-.64.64H30.83a.65.65,0,0,1-.64-.64V45.84a12.66,12.66,0,0,1-2.56-.62,12.34,12.34,0,0,1-3.53-1.86,11.47,11.47,0,0,1-.93-.75q-.25-.24-.35-.36a.61.61,0,0,1,0-.82l2.07-2.71a.63.63,0,0,1,.46-.24.5.5,0,0,1,.48.18l0,0A10.49,10.49,0,0,0,30.7,41.2a7,7,0,0,0,1.49.16,4.87,4.87,0,0,0,2.86-.86A2.81,2.81,0,0,0,36.29,38,2,2,0,0,0,36,37a3.77,3.77,0,0,0-.67-.84,5.51,5.51,0,0,0-1.18-.75q-.8-.41-1.33-.64t-1.61-.65L30,33.59l-1.24-.53q-.78-.35-1.26-.62t-1.14-.71a7.08,7.08,0,0,1-1.07-.85,12.5,12.5,0,0,1-.87-1,4.92,4.92,0,0,1-.71-1.17,8,8,0,0,1-.42-1.34,7,7,0,0,1-.17-1.57,6.87,6.87,0,0,1,2-4.86,9.19,9.19,0,0,1,5.12-2.69V14.64a.65.65,0,0,1,.64-.64h2.71a.62.62,0,0,1,.64.64v3.54a11.17,11.17,0,0,1,2.22.46,12.88,12.88,0,0,1,1.75.67,9.67,9.67,0,0,1,1.28.75q.6.42.78.58l.3.28a.58.58,0,0,1,.1.76L39,24.63a.55.55,0,0,1-.46.32.64.64,0,0,1-.54-.14l-.29-.24q-.23-.18-.78-.53a10.37,10.37,0,0,0-1.18-.64,9,9,0,0,0-1.5-.52,6.7,6.7,0,0,0-1.72-.23,5.22,5.22,0,0,0-3.11.86,2.7,2.7,0,0,0-1,3.19,2.26,2.26,0,0,0,.59.83,8.85,8.85,0,0,0,.79.66,7.08,7.08,0,0,0,1.13.62q.75.35,1.22.54l1.41.55,1.63.63q.56.23,1.53.7a12.14,12.14,0,0,1,1.52.85,12.81,12.81,0,0,1,1.25,1,5.21,5.21,0,0,1,1.06,1.28,7.27,7.27,0,0,1,.63,1.54A6.63,6.63,0,0,1,41.37,37.81Z"/><path d="M32,53.75a21,21,0,0,0,15.38-6.37A21,21,0,0,0,53.75,32a21,21,0,0,0-6.37-15.38A21,21,0,0,0,32,10.25a21,21,0,0,0-15.38,6.37A21,21,0,0,0,10.25,32a21,21,0,0,0,6.37,15.38A21,21,0,0,0,32,53.75ZM64,34.83l-5.5,1.33L58,38.5l4.5,3.33-2,5L54.83,46,53.5,47.83l2.83,4.83L52.5,56.5l-4.83-2.83L46,54.83l.83,5.67L42,62.5,38.5,58l-2.33.5L34.83,64H29.5L28,58.5,25.83,58l-3.5,4.67-4.83-2L18.17,55l-1.83-1.33-5,3.17L7.5,53l3-5.17L9.33,46l-5.83.83L1.5,42l4.67-3.67-.33-2L0,34.83V29.5L5.83,28l.33-2L1.33,22.33l2-5,6,.83L10.5,16.5,7.33,11.17,11,7.5l5.33,3.17,1.83-1.33L17.5,3.5l4.83-2.17L26,6.17l2-.33L29.5,0h5.33l1.5,5.83,2,.33L42,1.5l4.83,2L46,9.33l1.83,1.33,5-3L56.5,11.5l-2.83,5,1.17,1.67,5.83-.83,2,5L58,25.83,58.5,28,64,29.5Z"/></g></g></svg>
