<svg xmlns="http://www.w3.org/2000/svg" preserveAspectRatio="xMidYMid" height="64" viewBox="0 0 65.36 74"><title>tour-document</title><g id="Layer_2" data-name="Layer 2"><g id="Layer_1-2" data-name="Layer 1"><path d="M49.16,22.08l-8.5-8.46-.53-.52H24.28a4.44,4.44,0,0,0-4.44,4.44v34a4.44,4.44,0,0,0,4.44,4.44h21a4.44,4.44,0,0,0,4.44-4.44V22.6Zm-9-6.39,6.92,6.9H42a1.76,1.76,0,0,1-1.76-1.76Zm5.06,38.46h-21a2.64,2.64,0,0,1-2.64-2.64v-34a2.64,2.64,0,0,1,2.64-2.64H38.4v5.94A3.56,3.56,0,0,0,42,24.38h5.94V51.51A2.64,2.64,0,0,1,45.26,54.14Z"/><path d="M64.4,24.76a12.51,12.51,0,0,0-2.62-3.83,11,11,0,0,0-3.7-2.62,11.57,11.57,0,0,0-4.72-1,.57.57,0,0,1,.06-.26.57.57,0,0,0,.06-.26,16.06,16.06,0,0,0-1.34-6.51,17.23,17.23,0,0,0-9-9A16.38,16.38,0,0,0,36.51,0a16.72,16.72,0,0,0-4.79.7,15.74,15.74,0,0,0-4.28,2,18.33,18.33,0,0,0-3.51,3.06,17.47,17.47,0,0,0-2.62,3.83,13.57,13.57,0,0,0-1.85-.64,7.65,7.65,0,0,0-2-.26,8.51,8.51,0,0,0-3.13.57,10.41,10.41,0,0,0-2.62,1.47,9.33,9.33,0,0,0-1.91,2.36,8.59,8.59,0,0,0-1,2.87A12.07,12.07,0,0,0,5.3,17.81a12.57,12.57,0,0,0-2.74,2.87A10.42,10.42,0,0,0,.64,24.19,13.43,13.43,0,0,0,0,28.34a12.57,12.57,0,0,0,1,5,13.24,13.24,0,0,0,7,7,12.37,12.37,0,0,0,3.81,1V59.56A4.44,4.44,0,0,0,16.22,64h21a4.43,4.43,0,0,0,4.4-4.06c-.12,0-.24,0-.37,0a4.43,4.43,0,0,0,4.4-4.07c-.12,0-.24,0-.37,0a4.44,4.44,0,0,0,4.44-4.44V41.36h3.79a11.26,11.26,0,0,0,4.6-1,12.51,12.51,0,0,0,3.83-2.62A11.86,11.86,0,0,0,64.4,34a11.71,11.71,0,0,0,1-4.66A11.26,11.26,0,0,0,64.4,24.76ZM37.2,62.2h-21a2.64,2.64,0,0,1-2.64-2.64v-34A2.63,2.63,0,0,1,15.81,23V55.54A4.44,4.44,0,0,0,20.25,60H39.8A2.63,2.63,0,0,1,37.2,62.2Zm4-4h-21a2.64,2.64,0,0,1-2.64-2.64v-34A2.63,2.63,0,0,1,19.84,19V51.51a4.44,4.44,0,0,0,4.44,4.44H43.82A2.63,2.63,0,0,1,41.23,58.17Zm6.67-6.67a2.64,2.64,0,0,1-2.64,2.64h-21a2.64,2.64,0,0,1-2.64-2.64v-34a2.64,2.64,0,0,1,2.64-2.64H38.4v5.94A3.56,3.56,0,0,0,42,24.38h5.94ZM40.2,20.82V15.69l6.92,6.9H42A1.76,1.76,0,0,1,40.2,20.82ZM62.42,33.19a8.74,8.74,0,0,1-2.17,3.06,8.74,8.74,0,0,1-3.06,2.17,9.62,9.62,0,0,1-3.83.77H49.69V22.6l-.53-.53-8.5-8.46-.53-.52H24.28a4.43,4.43,0,0,0-4.4,4.07,4.43,4.43,0,0,0-4.07,4.4c0-.13,0-.25,0-.37a4.43,4.43,0,0,0-4.06,4.4V39.11a9.68,9.68,0,0,1-2.67-.7A13.25,13.25,0,0,1,5.36,36,13.16,13.16,0,0,1,3.1,32.58,9.94,9.94,0,0,1,2.19,29,10.11,10.11,0,0,1,2.74,25a15.09,15.09,0,0,1,1.47-3,11.62,11.62,0,0,1,2.36-2.43,9.53,9.53,0,0,1,3-1.53l.11,0a1.89,1.89,0,0,0,1.25-1.42l0-.2a6.67,6.67,0,0,1,2.3-4,4.87,4.87,0,0,1,1.85-1.15,7,7,0,0,1,2.36-.38A5.56,5.56,0,0,1,19,11a5.31,5.31,0,0,1,1.34.57l.73.32a1.46,1.46,0,0,0,1.91-.72l.29-.62a18.25,18.25,0,0,1,2.36-3.45,14.66,14.66,0,0,1,3.13-2.68A14.58,14.58,0,0,1,42.25,3.32,14.94,14.94,0,0,1,47,6.51,16.39,16.39,0,0,1,50,11.17a14,14,0,0,1,1.15,5.68v1.22a1.46,1.46,0,0,0,1.46,1.46h.71a9,9,0,0,1,3.83.83,10.59,10.59,0,0,1,3.06,2.11,8.74,8.74,0,0,1,2.17,3.06,10,10,0,0,1,0,7.66Z"/><path d="M33.07,23V21.64a2.05,2.05,0,1,0-4.11,0V23ZM31,29a1.36,1.36,0,1,0-.93-.4A1.27,1.27,0,0,0,31,29Zm4-6a1.36,1.36,0,0,1,1.33,1.33v6.63A1.36,1.36,0,0,1,35,32.24H27a1.36,1.36,0,0,1-1.33-1.33V24.29A1.36,1.36,0,0,1,27,23h.66V21.64a3.31,3.31,0,0,1,6.63,0V23Z"/><path d="M44.41,37.86H25.6a.64.64,0,1,1,0-1.28H44.41a.64.64,0,0,1,0,1.28Z"/><path d="M44.41,43.41H25.6a.64.64,0,0,1,0-1.28H44.41a.64.64,0,0,1,0,1.28Z"/><path d="M44.41,49H25.6a.64.64,0,0,1,0-1.28H44.41a.64.64,0,0,1,0,1.28Z"/></g></g></svg>
